<svg width="136" height="135" viewBox="0 0 136 135" fill="none" xmlns="http://www.w3.org/2000/svg">
<path d="M118.475 60C119.904 60.635 120.142 62.5794 118.872 63.5318L112.801 68.135C111.928 68.7699 111.729 70 112.324 70.9127L118.396 80.3572C119.229 81.627 118.436 83.3334 116.928 83.5318L105.816 85.0794C104.864 85.1985 104.11 85.9921 104.031 86.9445L102.88 100.357C102.761 101.587 101.61 102.46 100.42 102.222L84.2292 98.9683C83.5149 98.8096 82.8006 99.0477 82.3244 99.5635L72.8006 109.643C72.0863 110.397 70.9752 110.516 70.1419 109.96L58.6339 102.183C58.0387 101.786 57.2847 101.706 56.6498 101.984L41.5704 108.691C40.4197 109.206 39.1101 108.611 38.753 107.421L34.7054 94.6032C34.4276 93.6905 33.5149 93.0953 32.5625 93.1746L21.372 94.0873C19.8641 94.2064 18.753 92.7381 19.2689 91.3096L23.1578 80.754C23.5149 79.7223 23.0387 78.6111 22.0863 78.135L15.0625 75C13.6339 74.3651 13.3958 72.381 14.6657 71.4683L20.7371 66.8651C21.6101 66.2302 21.8085 65 21.2133 64.0873L15.1419 54.6429C14.3085 53.373 15.1022 51.6667 16.6101 51.4683L27.7212 49.9207C28.6736 49.8016 29.4276 49.008 29.507 48.0556L30.6578 34.6429C30.7768 33.4127 31.9276 32.5397 33.1181 32.7778L49.3085 36.0318C50.0228 36.1508 50.7371 35.9524 51.2133 35.4365L60.7371 25.3572C61.4514 24.6032 62.5625 24.4842 63.3958 25.0794L74.9038 32.8572C75.499 33.254 76.253 33.3334 76.9276 33.0556L92.007 26.3492C93.1578 25.8334 94.4673 26.4286 94.8244 27.6191L98.872 40.4365C99.1498 41.3492 100.063 41.9445 101.015 41.8651L112.205 40.9524C113.713 40.8334 114.824 42.3016 114.309 43.7302L110.42 54.2857C110.063 55.3175 110.539 56.4286 111.491 56.9048L118.475 60ZM104.428 65.1191C105.697 64.1667 105.459 62.2223 104.031 61.5873L100.301 59.9207C99.2292 59.4445 98.7927 58.1746 99.3085 57.1032L101.491 52.6588C102.205 51.1905 101.015 49.5238 99.3879 49.6826L93.7927 50.3175C92.8006 50.4365 91.8879 49.8413 91.6101 48.8889L88.9514 40.5556C88.5546 39.3651 87.245 38.7699 86.1339 39.2857L75.8562 43.8492C75.2212 44.127 74.4673 44.0873 73.872 43.6905L64.8244 37.6191C63.9911 37.0635 62.88 37.1826 62.1657 37.8969L54.6657 45.7937C54.1895 46.3096 53.4355 46.5477 52.7609 46.3889L41.7292 44.2064C40.499 43.9683 39.3482 44.8413 39.2689 46.0715L38.5149 54.7619C38.4355 55.754 37.6419 56.5477 36.6895 56.627L31.0943 57.2619C29.4673 57.4604 28.6736 59.3651 29.7054 60.635L32.8006 64.4842C33.5546 65.3969 33.3562 66.7461 32.4435 67.4207L29.1895 69.881C27.9197 70.8334 28.1578 72.7778 29.5863 73.4127L33.3165 75.0794C34.3879 75.5556 34.8244 76.8254 34.3085 77.8969L32.126 82.3413C31.4117 83.8096 32.6022 85.4762 34.2292 85.3175L39.8244 84.6826C40.8165 84.5635 41.7292 85.1588 42.0466 86.1112L44.7054 94.4445C45.0625 95.635 46.4117 96.1905 47.5228 95.7143L57.8006 91.1508C58.4355 90.8731 59.1895 90.9127 59.7847 91.3096L68.872 97.381C69.7054 97.9366 70.8165 97.8175 71.5308 97.1032L79.0704 89.2064C79.5466 88.6905 80.3006 88.4524 80.9752 88.6112L92.007 90.7937C93.2371 91.0318 94.3879 90.1588 94.4673 88.9286L95.2212 80.2381C95.3006 79.2461 96.0546 78.4524 97.0466 78.3731L102.642 77.7381C104.269 77.5397 105.063 75.635 104.031 74.3651L100.936 70.5159C100.221 69.6032 100.38 68.254 101.293 67.5794L104.428 65.1191Z" fill="#F49CC1"/>
<path d="M104.031 61.5874C105.459 62.2223 105.697 64.1668 104.428 65.1192L101.174 67.5795C100.221 68.2938 100.063 69.6033 100.816 70.516L103.912 74.3652C104.943 75.635 104.15 77.5398 102.523 77.7382L96.9276 78.3731C95.9355 78.4922 95.1815 79.2858 95.1022 80.2382L94.3482 88.9287C94.2292 90.1589 93.0784 91.0319 91.8879 90.7938L80.8562 88.6112C80.1419 88.4525 79.4276 88.6906 78.9514 89.2065L71.4117 97.1033C70.6974 97.8176 69.5863 97.9763 68.753 97.3811L59.6657 91.3096C59.0704 90.9128 58.3165 90.8335 57.6815 91.1509L47.4038 95.7144C46.2927 96.1906 44.9434 95.635 44.5863 94.4446L41.9276 86.1112C41.6101 85.1589 40.6974 84.5636 39.7054 84.6827L34.1101 85.3176C32.4831 85.516 31.2927 83.8096 32.0069 82.3414L34.1895 77.8969C34.7054 76.8255 34.2292 75.5557 33.1974 75.0795L29.4673 73.4128C28.0387 72.7779 27.8006 70.8335 29.0704 69.8811L32.3244 67.4208C33.2371 66.7065 33.4355 65.397 32.6815 64.4843L29.5863 60.635C28.5546 59.3652 29.3482 57.4604 30.9752 57.262L36.5704 56.6271C37.5625 56.5081 38.3165 55.7144 38.3958 54.762L39.1498 46.0716C39.2688 44.8414 40.4196 43.9684 41.6101 44.2065L52.6419 46.389C53.3561 46.5081 54.0704 46.3097 54.5466 45.7938L62.0466 37.897C62.7609 37.143 63.872 37.0239 64.7054 37.6192L73.753 43.6906C74.3482 44.0874 75.1022 44.1668 75.7371 43.8493L86.0149 39.2859C87.1657 38.77 88.4752 39.3652 88.8323 40.5557L91.4911 48.889C91.7689 49.8414 92.7212 50.4366 93.6736 50.3176L99.2689 49.6827C100.896 49.4843 102.086 51.1906 101.372 52.6589L99.1895 57.1033C98.6736 58.1747 99.1101 59.4446 100.182 59.9208L104.031 61.5874ZM71.0942 81.27C76.1339 79.8811 78.9911 76.3493 78.4355 71.7065C77.88 67.0636 74.4673 65.4763 69.5069 65.0001L65.6974 64.5636C63.6339 64.3652 62.5228 63.8493 62.3244 62.3811C62.126 60.635 63.5149 59.5239 65.8165 59.2462C67.7609 59.0081 69.0308 59.5636 69.8244 60.635C70.4196 61.4684 71.4117 61.8652 72.4435 61.8652C72.5625 61.8652 72.7212 61.8652 72.88 61.8255C75.499 61.5081 76.6101 58.3335 74.745 56.4684C72.8403 54.5636 70.2609 53.8097 67.8403 53.6112L67.6022 51.7858C67.4435 50.4763 66.3323 49.5239 65.0625 49.5239C64.9435 49.5239 64.8641 49.5239 64.745 49.5636C63.3165 49.7224 62.3244 51.0319 62.4831 52.4208L62.6815 54.0874C57.6419 55.3573 54.6657 59.0081 55.2212 63.77C55.7371 68.0557 58.5149 70.2382 63.872 70.7541L68.3958 71.2303C70.7371 71.389 71.372 72.3017 71.4911 73.1747C71.6895 74.643 70.499 75.7144 68.0387 75.9922C65.6181 76.27 63.753 75.635 62.7212 74.2858C62.126 73.5319 61.1736 73.0954 60.2212 73.0954C60.1022 73.0954 59.9435 73.0954 59.8244 73.135C57.2847 73.4525 55.9752 76.5081 57.7212 78.4525C59.7847 80.7541 62.8006 81.7858 66.0546 81.8652L66.2133 83.2541C66.372 84.5636 67.4831 85.516 68.753 85.516C68.872 85.516 68.9514 85.516 69.0704 85.4763C70.499 85.3176 71.4911 84.0081 71.3323 82.6192L71.0942 81.27Z" fill="#A51E24"/>
<path d="M78.4355 71.7064C78.9911 76.3493 76.0943 79.8414 71.0943 81.2699L71.253 82.6985C71.4117 84.1271 70.4197 85.3969 68.9911 85.5557C68.8721 85.5557 68.7927 85.5953 68.6736 85.5953C67.3641 85.5953 66.253 84.643 66.134 83.3334L65.9752 81.9445C62.6816 81.8652 59.6657 80.7938 57.6419 78.5318C55.9355 76.5874 57.2054 73.5318 59.7451 73.2144C59.8641 73.2144 60.0228 73.1747 60.1419 73.1747C61.0943 73.1747 62.0467 73.5715 62.6419 74.3652C63.7133 75.7144 65.5784 76.3493 67.9594 76.0715C70.4197 75.7938 71.6101 74.7223 71.4117 73.2541C71.2927 72.3414 70.6578 71.4684 68.3165 71.3096L63.7927 70.8334C58.3959 70.3176 55.6578 68.135 55.1419 63.8493C54.5863 59.0874 57.5625 55.4366 62.6022 54.1668L62.4038 52.5001C62.2451 51.0715 63.2371 49.8017 64.6657 49.643C64.7847 49.643 64.8641 49.6033 64.9832 49.6033C66.253 49.6033 67.4038 50.5557 67.5228 51.8652L67.7609 53.6906C70.1816 53.889 72.7609 54.643 74.6657 56.5477C76.4911 58.4128 75.38 61.5874 72.8006 61.9049C72.6419 61.9049 72.5229 61.9445 72.3641 61.9445C71.3324 61.9445 70.3403 61.508 69.7451 60.7144C68.9514 59.643 67.6816 59.0874 65.7371 59.3255C63.4752 59.6033 62.0467 60.7144 62.2451 62.4604C62.4038 63.9287 63.5546 64.4445 65.6181 64.643L69.4276 65.0795C74.4673 65.4763 77.88 67.0636 78.4355 71.7064Z" fill="#D4B265"/>
<path d="M71.0943 81.2699L71.253 82.6985C71.4117 84.1271 70.4197 85.3969 68.9911 85.5557C68.8721 85.5557 68.7927 85.5953 68.6736 85.5953C67.3641 85.5953 66.253 84.643 66.134 83.3334L65.9752 81.9445C62.6816 81.8652 59.6657 80.7938 57.6419 78.5318C55.9355 76.5874 57.2054 73.5318 59.7451 73.2144C59.8641 73.2144 60.0228 73.1747 60.1419 73.1747C61.0943 73.1747 62.0467 73.5715 62.6419 74.3652C63.7133 75.7144 65.5784 76.3493 67.9594 76.0715C70.4197 75.7938 71.6101 74.7223 71.4117 73.2541C71.2927 72.3414 70.6578 71.4684 68.3165 71.3096L63.7927 70.8334C58.3959 70.3176 55.6578 68.135 55.1419 63.8493C54.5863 59.0874 57.5625 55.4366 62.6022 54.1668L62.4038 52.5001C62.2451 51.0715 63.2371 49.8017 64.6657 49.643C64.7847 49.643 64.8641 49.6033 64.9832 49.6033C66.253 49.6033 67.4038 50.5557 67.5228 51.8652L67.7609 53.6906C70.1816 53.889 72.7609 54.643 74.6657 56.5477C76.4911 58.4128 75.38 61.5874 72.8006 61.9049C72.6419 61.9049 72.5228 61.9445 72.3641 61.9445C71.3324 61.9445 70.3403 61.508 69.7451 60.7144C68.9514 59.643 67.6816 59.0874 65.7371 59.3255C63.4752 59.6033 62.0467 60.7144 62.2451 62.4604C62.4038 63.9287 63.5546 64.4445 65.6181 64.643L69.4276 65.0795C74.4276 65.5557 77.8006 67.1826 78.3562 71.7858C78.9911 76.3493 76.0943 79.8811 71.0943 81.2699Z" stroke="#1C112E" stroke-width="5" stroke-miterlimit="10" stroke-linecap="round" stroke-linejoin="round"/>
<path d="M104.428 65.1192L101.174 67.5795C100.221 68.2938 100.062 69.6033 100.816 70.516L103.912 74.3652C104.943 75.635 104.15 77.5398 102.523 77.7382L96.9275 78.3731C95.9355 78.4922 95.1815 79.2858 95.1021 80.2382L94.3482 88.9287C94.2291 90.1589 93.0783 91.0319 91.8879 90.7938L80.8561 88.6112C80.1418 88.4525 79.4276 88.6906 78.9514 89.2065L71.4117 97.1033C70.6974 97.8176 69.5863 97.9763 68.753 97.3811L59.6657 91.3096C59.0704 90.9128 58.3165 90.8335 57.6815 91.1509L47.4038 95.7144C46.2926 96.1906 44.9434 95.635 44.5863 94.4446L41.9276 86.1112C41.6101 85.1589 40.6974 84.5636 39.7053 84.6827L34.1101 85.3176C32.4831 85.516 31.2927 83.8096 32.0069 82.3414L34.1895 77.897C34.7053 76.8255 34.2292 75.5557 33.1974 75.0795L29.4673 73.4128C28.0387 72.7779 27.8006 70.8335 29.0704 69.8811L32.3244 67.4208C33.2371 66.7065 33.4355 65.397 32.6815 64.4843L29.5863 60.635C28.5546 59.3652 29.3482 57.4604 30.9752 57.262L36.5704 56.6271C37.5625 56.5081 38.3165 55.7144 38.3958 54.762L39.1498 46.0716C39.2688 44.8414 40.4196 43.9684 41.6101 44.2065L52.6418 46.389C53.3561 46.5081 54.0704 46.3097 54.5466 45.7938L62.0466 37.897C62.7609 37.143 63.872 37.0239 64.7053 37.6192L73.753 43.6906C74.3482 44.0874 75.1022 44.1668 75.7371 43.8493L86.0149 39.2859C87.1656 38.77 88.4752 39.3652 88.8323 40.5557L91.491 48.889C91.7688 49.8414 92.7212 50.4366 93.6736 50.3176L99.2688 49.6827C100.896 49.4843 102.086 51.1906 101.372 52.6589L99.1894 57.1033C98.6736 58.1747 99.1101 59.4446 100.182 59.9208L103.912 61.5874C105.459 62.2223 105.697 64.1668 104.428 65.1192Z" stroke="#1C112E" stroke-width="5" stroke-miterlimit="10" stroke-linecap="round" stroke-linejoin="round"/>
<path d="M118.872 63.5318L112.801 68.135C111.928 68.7699 111.729 70 112.324 70.9127L118.396 80.3572C119.229 81.627 118.436 83.3334 116.928 83.5318L105.816 85.0794C104.864 85.1985 104.11 85.9921 104.031 86.9445L102.88 100.357C102.761 101.587 101.61 102.46 100.42 102.222L84.2292 98.9683C83.5149 98.8096 82.8006 99.0477 82.3244 99.5635L72.8006 109.643C72.0863 110.397 70.9752 110.516 70.1419 109.96L58.6339 102.183C58.0387 101.786 57.2847 101.706 56.6498 101.984L41.5705 108.691C40.4197 109.206 39.1101 108.611 38.753 107.421L34.7054 94.6032C34.4276 93.6905 33.5149 93.0953 32.5625 93.1746L21.372 94.0873C19.8641 94.2064 18.753 92.7381 19.2689 91.3096L23.1578 80.754C23.5149 79.7223 23.0387 78.6111 22.0863 78.135L15.0625 75C13.6339 74.3651 13.3958 72.381 14.6657 71.4683L20.7371 66.8651C21.6101 66.2302 21.8085 65 21.2133 64.0873L15.1419 54.6429C14.3085 53.373 15.1022 51.6667 16.6101 51.4683L27.7212 49.9207C28.6736 49.8016 29.4276 49.008 29.507 48.0556L30.6578 34.6429C30.7768 33.4127 31.9276 32.5397 33.1181 32.7778L49.3085 36.0318C50.0228 36.1508 50.7371 35.9524 51.2133 35.4365L60.7371 25.3572C61.4514 24.6032 62.5625 24.4842 63.3958 25.0794L74.9038 32.8572C75.499 33.254 76.253 33.3334 76.9276 33.0556L92.007 26.3492C93.1578 25.8334 94.4673 26.4286 94.8244 27.6191L98.872 40.4365C99.1498 41.3492 100.063 41.9445 101.015 41.8651L112.205 40.9524C113.713 40.8334 114.824 42.3016 114.309 43.7302L110.42 54.2857C110.063 55.3175 110.539 56.4286 111.491 56.9048L118.436 60.0397C119.904 60.635 120.142 62.5794 118.872 63.5318Z" stroke="#1C112E" stroke-width="5" stroke-miterlimit="10" stroke-linecap="round" stroke-linejoin="round"/>
</svg>
