<svg width="135" height="135" viewBox="0 0 135 135" fill="none" xmlns="http://www.w3.org/2000/svg">
<path d="M50.1181 42.2618L43.4514 34.2063C43.4514 34.2063 38.4117 28.4523 42.1419 25.119C46.5863 21.1904 51.626 28.0158 51.626 28.0158L57.8562 35.5952C57.8562 35.5952 57.2212 32.1825 59.5228 31.0317C61.8244 29.8809 64.999 28.8491 67.4593 34.2063C69.7609 39.2063 87.5784 66.1904 110.713 86.3888C113.491 88.8094 114.166 92.8571 112.38 96.111C107.856 104.087 99.126 114.762 90.753 109.802C87.8562 108.055 81.1498 103.175 75.0784 97.619C72.9752 95.6745 70.0784 94.9206 67.4197 96.0317C64.0863 97.4206 58.8879 99.0872 52.4593 99.484C43.8482 100.04 34.007 93.1348 36.7054 88.1348C39.4038 83.1348 44.5625 88.6507 47.0625 88.8888C51.1101 89.2856 60.5149 86.7856 60.1181 74.484C59.7212 62.1825 46.3085 62.9761 43.6101 67.9364C43.6101 67.9364 40.9117 70.992 39.9593 75.5952C39.007 80.1983 36.9038 81.9444 34.5625 81.9444C32.2609 81.9444 26.2689 80.3967 30.3562 67.1428C32.9355 58.6904 40.0784 54.4047 46.7847 53.2936C46.7847 53.2936 40.7133 46.2698 34.9593 48.6904C29.2054 51.111 26.7054 53.6507 23.6101 50.5952C20.5546 47.5396 22.4593 40.6348 34.5625 38.2142C40.1577 37.2221 45.7133 39.484 50.1181 42.2618Z" fill="#F3A591"/>
<path d="M46.8244 53.4126C46.8244 53.4126 40.753 46.3888 34.999 48.8095C29.245 51.2301 26.745 53.7698 23.6498 50.7142C20.5943 47.6587 22.499 40.7539 34.6022 38.3333C40.1181 37.2222 45.7133 39.4841 50.1181 42.2618C55.3561 45.5555 58.9673 49.6031 58.9673 49.6031" stroke="#1C112E" stroke-width="5" stroke-miterlimit="10" stroke-linecap="round" stroke-linejoin="round"/>
<path d="M50.1181 42.2618L43.4514 34.2063C43.4514 34.2063 38.4117 28.4523 42.1419 25.119C46.5863 21.1904 51.626 28.0158 51.626 28.0158L57.8562 35.5951L67.4593 47.3015" stroke="#1C112E" stroke-width="5" stroke-miterlimit="10" stroke-linecap="round" stroke-linejoin="round"/>
<path d="M57.8959 35.5952C57.8959 35.5952 57.2609 32.1825 59.5625 31.0317C61.8641 29.8809 65.0387 28.8492 67.499 34.2063C69.8006 39.2063 87.6181 66.1904 110.753 86.3889C113.531 88.8095 114.205 92.8571 112.42 96.1111C107.896 104.087 99.1657 114.762 90.7927 109.802C87.8959 108.056 81.1895 103.175 75.1181 97.619C73.0149 95.6746 70.1181 94.9206 67.4593 96.0317C64.126 97.4206 58.9276 99.0873 52.499 99.4841C43.8879 100.04 34.0467 93.1349 36.7451 88.1349C39.4435 83.1349 44.6022 88.6508 47.1022 88.8889C51.1498 89.2857 60.5546 86.7857 60.1578 74.4841C59.7609 62.1825 46.3482 62.9762 43.6498 67.9365C43.6498 67.9365 40.9514 70.992 39.999 75.5952C39.0467 80.1984 36.9435 81.9444 34.6022 81.9444C32.3006 81.9444 26.3086 80.3968 30.3959 67.1428C32.9752 58.6904 40.1181 54.4047 46.8244 53.2936C49.6022 52.8571 52.3006 52.9365 54.5625 53.492" stroke="#1C112E" stroke-width="5" stroke-miterlimit="10" stroke-linecap="round" stroke-linejoin="round"/>
</svg>
