<svg width="135" height="135" viewBox="0 0 135 135" fill="none" xmlns="http://www.w3.org/2000/svg">
<path d="M44.3641 55.1191C44.3641 56.7461 45.6737 58.0556 47.3006 58.0556C48.9276 58.0556 50.2371 56.7461 50.2371 55.1191C50.2371 53.4921 48.9276 52.1826 47.3006 52.1826C45.6737 52.2223 44.3641 53.4921 44.3641 55.1191ZM54.3641 55.1191C54.3641 56.7461 55.6737 58.0556 57.3006 58.0556C58.9276 58.0556 60.2371 56.7461 60.2371 55.1191C60.2371 53.4921 58.9276 52.1826 57.3006 52.1826C55.6737 52.2223 54.3641 53.4921 54.3641 55.1191ZM85.9117 92.8572C85.9117 91.2699 84.6022 89.9207 82.9752 89.9207C81.3483 89.9207 80.0387 91.2302 80.0387 92.8572C80.0387 94.4842 81.3483 95.7937 82.9752 95.7937C84.6022 95.7937 85.9117 94.4842 85.9117 92.8572ZM75.9117 92.8572C75.9117 91.2699 74.6022 89.9207 72.9752 89.9207C71.3483 89.9207 70.0387 91.2302 70.0387 92.8572C70.0387 94.4842 71.3483 95.7937 72.9752 95.7937C74.6022 95.7937 75.9117 94.4842 75.9117 92.8572ZM100.197 38.5715V113.135C100.197 114.246 99.2848 115.159 98.1736 115.159H32.1419C31.0308 115.159 30.1181 114.246 30.1181 113.135V21.8651C30.1181 20.754 31.0308 19.8413 32.1419 19.8413H81.507V38.5715H100.197Z" fill="white"/>
<path d="M100.197 38.5715H81.507V19.8413L100.197 38.5715Z" fill="#A9A3A1"/>
<path d="M83.015 89.9604C84.6023 89.9604 85.9515 91.27 85.9515 92.897C85.9515 94.5239 84.6419 95.8335 83.015 95.8335C81.388 95.8335 80.0785 94.5239 80.0785 92.897C80.0785 91.27 81.388 89.9604 83.015 89.9604Z" fill="white"/>
<path d="M73.0149 89.9604C74.6419 89.9604 75.9515 91.27 75.9515 92.897C75.9515 94.5239 74.6419 95.8335 73.0149 95.8335C71.388 95.8335 70.0784 94.5239 70.0784 92.897C70.0784 91.27 71.388 89.9604 73.0149 89.9604Z" fill="white"/>
<path d="M57.3006 58.0556C58.9224 58.0556 60.2371 56.7409 60.2371 55.1191C60.2371 53.4973 58.9224 52.1826 57.3006 52.1826C55.6788 52.1826 54.3641 53.4973 54.3641 55.1191C54.3641 56.7409 55.6788 58.0556 57.3006 58.0556Z" fill="white"/>
<path d="M47.3007 52.2222C48.9277 52.2222 50.2372 53.5317 50.2372 55.1587C50.2372 56.7857 48.9277 58.0952 47.3007 58.0952C45.7134 58.0952 44.3642 56.7857 44.3642 55.1587C44.3642 53.492 45.6737 52.2222 47.3007 52.2222Z" fill="white"/>
<path d="M100.197 38.5715V113.135C100.197 114.246 99.2848 115.159 98.1736 115.159H32.1419C31.0308 115.159 30.1181 114.246 30.1181 113.135V21.8651C30.1181 20.754 31.0308 19.8413 32.1419 19.8413H81.507" stroke="#1C112E" stroke-width="5" stroke-miterlimit="10" stroke-linecap="round" stroke-linejoin="round"/>
<path d="M100.197 38.5715L81.507 19.8413V38.5715H100.197Z" stroke="#1C112E" stroke-width="5" stroke-miterlimit="10" stroke-linecap="round" stroke-linejoin="round"/>
<path d="M44.3642 67.5H85.9515" stroke="#1C112E" stroke-width="5" stroke-miterlimit="10" stroke-linecap="round" stroke-linejoin="round"/>
<path d="M65.1578 53.2539H85.9514" stroke="#1C112E" stroke-width="5" stroke-miterlimit="10" stroke-linecap="round" stroke-linejoin="round"/>
<path d="M44.3642 79.6826H85.9515" stroke="#1C112E" stroke-width="5" stroke-miterlimit="10" stroke-linecap="round" stroke-linejoin="round"/>
<path d="M44.3642 93.8889H65.1578" stroke="#1C112E" stroke-width="5" stroke-miterlimit="10" stroke-linecap="round" stroke-linejoin="round"/>
<path d="M50.1975 55.1191C50.1975 56.7461 48.888 58.0556 47.261 58.0556C45.6737 58.0556 44.3245 56.7461 44.3245 55.1191C44.3245 53.4921 45.634 52.1826 47.261 52.1826C48.888 52.2223 50.1975 53.4921 50.1975 55.1191Z" stroke="#1C112E" stroke-width="5" stroke-miterlimit="10" stroke-linecap="round" stroke-linejoin="round"/>
<path d="M44.3641 55.1191C44.3641 55.1191 43.8879 50.8334 47.8165 47.1826" stroke="#1C112E" stroke-width="5" stroke-miterlimit="10" stroke-linecap="round" stroke-linejoin="round"/>
<path d="M57.3006 58.0556C58.9224 58.0556 60.2371 56.7409 60.2371 55.1191C60.2371 53.4973 58.9224 52.1826 57.3006 52.1826C55.6788 52.1826 54.3641 53.4973 54.3641 55.1191C54.3641 56.7409 55.6788 58.0556 57.3006 58.0556Z" stroke="#1C112E" stroke-width="5" stroke-miterlimit="10" stroke-linecap="round" stroke-linejoin="round"/>
<path d="M54.3642 55.1191C54.3642 55.1191 53.888 50.8334 57.8166 47.1826" stroke="#1C112E" stroke-width="5" stroke-miterlimit="10" stroke-linecap="round" stroke-linejoin="round"/>
<path d="M80.0785 92.8572C80.0785 91.2699 81.388 89.9207 83.015 89.9207C84.6023 89.9207 85.9515 91.2302 85.9515 92.8572C85.9515 94.4841 84.6419 95.7937 83.015 95.7937C81.388 95.7937 80.0785 94.4841 80.0785 92.8572Z" stroke="#1C112E" stroke-width="5" stroke-miterlimit="10" stroke-linecap="round" stroke-linejoin="round"/>
<path d="M85.9118 92.8572C85.9118 92.8572 86.388 97.1429 82.4594 100.794" stroke="#1C112E" stroke-width="5" stroke-miterlimit="10" stroke-linecap="round" stroke-linejoin="round"/>
<path d="M70.0784 92.8572C70.0784 91.2699 71.388 89.9207 73.0149 89.9207C74.6419 89.9207 75.9515 91.2302 75.9515 92.8572C75.9515 94.4841 74.6419 95.7937 73.0149 95.7937C71.388 95.7937 70.0784 94.4841 70.0784 92.8572Z" stroke="#1C112E" stroke-width="5" stroke-miterlimit="10" stroke-linecap="round" stroke-linejoin="round"/>
<path d="M75.9118 92.8572C75.9118 92.8572 76.388 97.1429 72.4594 100.794" stroke="#1C112E" stroke-width="5" stroke-miterlimit="10" stroke-linecap="round" stroke-linejoin="round"/>
</svg>
