<svg width="111" height="110" viewBox="0 0 111 110" fill="none" xmlns="http://www.w3.org/2000/svg">
<path d="M77.9684 71.7491C80.5228 72.3311 81.2664 75.5968 79.2617 77.2458L75.3817 80.4469C74.5733 81.0936 74.153 82.1283 74.25 83.163L74.6703 88.1747C74.8967 90.7938 72.0513 92.5075 69.8202 91.1171L65.5845 88.4334C64.7115 87.8837 63.6121 87.7867 62.6744 88.207L58.0507 90.1794C55.658 91.1818 53.1036 89.0154 53.7826 86.4934L55.0436 81.6433C55.3023 80.6409 55.0436 79.5739 54.3646 78.7979L51.0666 75.0148C49.3529 73.0424 50.6462 69.9707 53.2653 69.8091L58.277 69.4857C59.3117 69.421 60.2494 68.8714 60.7991 67.966L63.3858 63.6656C64.7438 61.4346 68.0742 61.6932 69.0119 64.1506L70.8549 68.8067C71.2429 69.7767 72.0513 70.4881 73.086 70.7144L77.9684 71.7491Z" fill="#D4B265"/>
<path d="M40.2994 76.2112C40.9784 77.4075 39.9761 78.8626 38.618 78.6685L35.999 78.3129C35.4493 78.2482 34.932 78.4422 34.544 78.8302L32.7656 80.7703C31.8279 81.7726 30.1466 81.2876 29.9202 79.9296L29.4675 77.3429C29.3705 76.7932 29.0149 76.3405 28.5299 76.1142L26.1371 75.0148C24.8761 74.4328 24.8438 72.6868 26.0401 72.0401L28.3682 70.8114C28.8532 70.5527 29.1765 70.0677 29.2412 69.5504L29.5322 66.9313C29.6939 65.5733 31.3429 64.959 32.3453 65.929L34.253 67.7397C34.641 68.1277 35.1906 68.2894 35.7403 68.16L38.327 67.6427C39.6851 67.384 40.7521 68.7744 40.1377 70.0031L38.9737 72.3634C38.7474 72.8484 38.7474 73.4305 39.006 73.9155L40.2994 76.2112Z" fill="#D4B265"/>
<path d="M34.35 43.6186C35.6433 45.8819 33.7356 48.6626 31.1489 48.2746L26.1695 47.5633C25.1348 47.434 24.1001 47.7896 23.3888 48.5656L19.9937 52.2517C18.2153 54.1917 15.0143 53.2541 14.5616 50.6673L13.6886 45.7203C13.4946 44.7179 12.8479 43.8449 11.8779 43.3922L7.3188 41.3228C4.92609 40.2235 4.82909 36.8931 7.15713 35.6644L11.5869 33.304C12.4922 32.819 13.1389 31.9137 13.2359 30.879L13.8179 25.8996C14.1089 23.2805 17.2453 22.1812 19.153 23.9919L22.7744 27.4839C23.5181 28.1953 24.5851 28.5186 25.5875 28.2923L30.5022 27.2899C33.0566 26.7726 35.126 29.424 33.9619 31.752L31.7956 36.3111C31.3429 37.2488 31.3752 38.3481 31.8926 39.2535L34.35 43.6186Z" fill="#D4B265"/>
<path d="M17.7304 54.0947C17.3747 54.0947 16.9867 54.03 16.5987 53.933C15.1436 53.5126 14.0766 52.3163 13.8179 50.8289L12.9449 45.8818C12.8156 45.1382 12.2982 44.4915 11.6192 44.1681L7.06015 42.0988C5.6698 41.4521 4.79678 40.1264 4.73211 38.6067C4.69978 37.087 5.47579 35.6967 6.83382 34.9853L11.2636 32.6249C11.9426 32.2693 12.3953 31.5903 12.4923 30.8142L13.0743 25.8348C13.2359 24.3151 14.2383 23.0541 15.661 22.5368C17.0837 22.0194 18.668 22.3751 19.7674 23.4098L23.3888 26.9342C23.9385 27.4838 24.7145 27.7102 25.4905 27.5485L30.4052 26.5462C31.8926 26.2552 33.4123 26.8048 34.3177 28.0012C35.2553 29.1975 35.417 30.8142 34.738 32.1723L32.5393 36.6667C32.1836 37.378 32.2159 38.1864 32.604 38.833L35.0613 43.1981C35.805 44.5238 35.7403 46.1082 34.8997 47.3692C34.059 48.6302 32.5716 49.2769 31.0843 49.0506L26.1048 48.3392C25.3288 48.2422 24.5528 48.5009 24.0355 49.0829L20.6404 52.769C19.8644 53.642 18.8297 54.0947 17.7304 54.0947ZM17.0513 23.9271C16.7927 23.9271 16.5017 23.9595 16.243 24.0565C15.37 24.3798 14.8203 25.0911 14.691 25.9965L14.1089 30.9759C13.9473 32.2693 13.1713 33.401 12.0396 34.0153L7.60983 36.3757C6.80148 36.796 6.34881 37.6044 6.38114 38.5097C6.41348 39.4151 6.93082 40.1911 7.73917 40.5791L12.2983 42.6485C13.4623 43.1981 14.303 44.2975 14.5616 45.5585L15.4346 50.5056C15.5963 51.4109 16.2107 52.09 17.0837 52.3486C17.9567 52.6073 18.862 52.3486 19.4764 51.6696L22.8714 47.9835C23.7445 47.0135 25.0378 46.5609 26.3312 46.7225L31.3106 47.4339C32.2159 47.5632 33.0566 47.1752 33.574 46.4315C34.0913 45.6878 34.1236 44.7502 33.671 43.9741L31.2136 39.6091C30.5669 38.4774 30.5346 37.087 31.1166 35.923L33.3153 31.4286C33.7033 30.6202 33.6386 29.6826 33.0566 28.9712C32.507 28.2599 31.6339 27.9365 30.7286 28.0982L25.8138 29.1005C24.5205 29.3592 23.1948 28.9712 22.2894 28.0659L18.6357 24.6061C18.183 24.1535 17.6333 23.9271 17.0513 23.9271Z" fill="#1C112E"/>
<path d="M71.534 92.4104C70.7903 92.4104 70.0466 92.2164 69.3999 91.796L65.1642 89.1123C64.5175 88.692 63.7092 88.6273 62.9978 88.9183L58.3741 90.8907C56.9837 91.4727 55.3993 91.2463 54.2353 90.244C53.0713 89.2416 52.6186 87.7219 52.9743 86.2669L54.2353 81.4168C54.4293 80.6732 54.2353 79.8648 53.7503 79.2828L50.4523 75.4997C49.4499 74.368 49.1912 72.7837 49.7732 71.361C50.3553 69.9706 51.6809 69.0329 53.1683 68.9359L58.1801 68.6126C58.9561 68.5803 59.6674 68.1599 60.0554 67.4809L62.6421 63.1805C63.4182 61.8871 64.8408 61.1435 66.3605 61.2728C67.8802 61.4021 69.1736 62.3722 69.7233 63.7625L71.5663 68.4186C71.8573 69.1299 72.4717 69.6796 73.2153 69.8413L78.0978 70.973C79.5851 71.3287 80.7168 72.4603 81.0725 73.9154C81.4281 75.4027 80.9108 76.9224 79.7468 77.8924L75.8667 81.0935C75.2847 81.5785 74.9614 82.3222 75.026 83.0982L75.4464 88.11C75.5757 89.6297 74.8644 91.0523 73.5387 91.8607C72.9567 92.2164 72.2453 92.4104 71.534 92.4104ZM63.9355 87.1076C64.6792 87.1076 65.4229 87.3016 66.0695 87.7219L70.3053 90.4057C71.0813 90.8907 71.9866 90.8907 72.795 90.438C73.571 89.953 73.9913 89.1446 73.9267 88.2393L73.5063 83.2275C73.377 81.9342 73.9267 80.6732 74.929 79.8325L78.8091 76.6314C79.5204 76.0494 79.8115 75.1764 79.5851 74.271C79.3911 73.398 78.7121 72.719 77.8391 72.525L72.9567 71.3933C71.6956 71.1023 70.6286 70.197 70.1759 68.9683L68.3329 64.3122C68.0096 63.4715 67.2659 62.9218 66.3605 62.8248C65.4552 62.7602 64.6145 63.1805 64.1618 63.9565L61.5751 68.2569C60.9284 69.3886 59.7321 70.1 58.4064 70.1646L53.3946 70.488C52.4893 70.5526 51.7456 71.07 51.3899 71.9107C51.0343 72.7513 51.1959 73.6567 51.7779 74.368L55.076 78.1511C55.949 79.1211 56.24 80.4792 55.9167 81.7402L54.6557 86.5903C54.4293 87.4633 54.7203 88.3686 55.3993 88.9506C56.0784 89.5327 57.016 89.6943 57.8567 89.3386L62.4805 87.3663C62.8685 87.2046 63.3858 87.1076 63.9355 87.1076Z" fill="#1C112E"/>
<path d="M31.5692 82.1281C31.3429 82.1281 31.1166 82.0958 30.8579 82.0311C29.9525 81.7725 29.2735 81.0288 29.1118 80.0911L28.6592 77.5044C28.6268 77.2457 28.4328 76.987 28.1742 76.89L25.7815 75.7907C24.9084 75.4027 24.3588 74.562 24.3264 73.6243C24.2941 72.6866 24.8114 71.8136 25.6198 71.3609L27.9478 70.1322C28.2065 70.0029 28.3682 69.7442 28.4005 69.4856L28.6915 66.8665C28.7885 65.9288 29.4029 65.1528 30.3082 64.8295C31.2136 64.5061 32.1836 64.7325 32.8626 65.3791L34.7703 67.1899C34.9643 67.3839 35.2553 67.4809 35.514 67.4162L38.1007 66.8988C39.0384 66.7048 39.9437 67.0605 40.5257 67.8042C41.1077 68.5479 41.2047 69.5502 40.7844 70.3909L39.6204 72.7513C39.491 73.01 39.491 73.301 39.6527 73.5273L40.9461 75.823C41.3987 76.6314 41.3664 77.6337 40.8491 78.4421C40.3317 79.2181 39.394 79.6384 38.4564 79.4767L35.8373 79.1211C35.5463 79.0887 35.2876 79.1857 35.0936 79.3797L33.3153 81.3198C32.9273 81.8371 32.2482 82.1281 31.5692 82.1281ZM31.2136 66.2845C31.1166 66.2845 31.0196 66.3168 30.9226 66.3492C30.5992 66.4462 30.4052 66.7372 30.3729 67.0605L30.0819 69.6796C29.9849 70.4879 29.4999 71.1993 28.7885 71.5873L26.4605 72.816C26.1695 72.9776 26.0078 73.2686 26.0078 73.592C26.0078 73.9153 26.2018 74.2063 26.4928 74.3356L28.8855 75.435C29.6292 75.7583 30.1465 76.4374 30.3082 77.2457L30.7609 79.8324C30.8255 80.1558 31.0519 80.4144 31.3752 80.5114C31.6986 80.6084 32.0219 80.5114 32.2482 80.2851L34.0266 78.3451C34.5763 77.7307 35.3846 77.4397 36.193 77.569L38.812 77.9247C39.1354 77.9571 39.4587 77.8277 39.6204 77.569C39.8144 77.3104 39.8144 76.9547 39.6527 76.6637L38.3594 74.368C37.9713 73.6566 37.939 72.816 38.2947 72.0723L39.4587 69.7119C39.588 69.4209 39.5557 69.0652 39.3617 68.8065C39.1677 68.5479 38.8444 68.4185 38.521 68.4832L35.9343 69.0005C35.126 69.1622 34.3176 68.9035 33.7356 68.3539L31.8279 66.5432C31.6339 66.3492 31.4076 66.2845 31.2136 66.2845Z" fill="#1C112E"/>
<path d="M66.1342 39.2857C65.9079 39.2857 65.7139 39.1887 65.5522 39.027C65.2289 38.7037 65.2612 38.1863 65.5522 37.8953C66.5869 36.893 67.9126 36.117 69.4969 35.632C75.5757 33.7242 79.8438 35.5996 80.0055 35.6643C80.4258 35.8583 80.5875 36.3433 80.3935 36.7313C80.1995 37.1516 79.7145 37.3133 79.3265 37.1193C79.2941 37.1193 75.4464 35.4379 69.9496 37.1516C68.5916 37.572 67.4922 38.2187 66.6192 39.027C66.5546 39.1887 66.3282 39.2857 66.1342 39.2857Z" fill="#1C112E"/>
<path d="M67.0072 48.2099C65.8756 48.2099 64.8409 47.5956 64.1295 46.4316C62.8038 44.2652 62.8685 40.5468 65.5522 37.8954C65.8109 37.6691 66.1666 37.6044 66.4899 37.7661C69.6586 39.3181 70.6286 42.1635 70.4993 44.2652C70.37 46.1082 69.4323 47.5633 68.0096 48.0483C67.6863 48.1453 67.3306 48.2099 67.0072 48.2099ZM66.2959 39.4798C64.9702 41.0965 64.3235 43.6509 65.5199 45.5909C65.8109 46.0759 66.4899 46.8519 67.4923 46.5286C68.2683 46.2699 68.7856 45.3322 68.8826 44.1682C68.9796 42.6485 68.3329 40.7085 66.2959 39.4798Z" fill="#1C112E"/>
<path d="M53.8796 40.2881C53.621 40.2881 53.33 40.1588 53.2006 39.9001C52.9743 39.5121 53.1036 39.0271 53.4916 38.8007C55.5287 37.5721 57.8244 36.8607 60.3141 36.7314C62.7715 36.5697 64.8732 36.9254 66.5545 37.7661C66.9425 37.9601 67.1042 38.4451 66.9102 38.8654C66.7162 39.2534 66.2312 39.4151 65.8109 39.2211C64.3882 38.5097 62.5775 38.2187 60.4111 38.3481C58.2124 38.4774 56.1754 39.0918 54.3323 40.1911C54.1707 40.2234 54.009 40.2881 53.8796 40.2881Z" fill="#1C112E"/>
<path d="M51.2929 51.6697C50.9372 51.6697 50.5492 51.6373 50.0966 51.508C48.6092 51.12 47.6392 50.0206 47.4128 48.4686C47.0248 45.7525 48.9972 41.4521 53.4593 38.8008C53.6533 38.6714 53.8796 38.6714 54.106 38.7038C54.3323 38.7684 54.494 38.8978 54.591 39.0918C55.173 40.1911 55.561 41.4198 55.7873 42.8102C55.7873 42.8425 55.7873 42.8748 55.7873 42.9072C55.7873 42.9718 55.852 44.3622 55.658 46.0112C55.367 48.3393 54.6233 49.9883 53.524 50.8936C53.0713 51.2816 52.3276 51.6697 51.2929 51.6697ZM53.524 40.6438C50.3229 42.8748 48.7062 46.1406 49.0295 48.2099C49.1589 49.1153 49.6439 49.6973 50.5169 49.9236C51.3576 50.15 52.0043 50.053 52.5216 49.6003C54.106 48.3069 54.2676 44.4269 54.203 43.0042C54.0413 42.1635 53.815 41.3551 53.524 40.6438Z" fill="#1C112E"/>
<path d="M53.8797 40.288C53.5887 40.288 53.2977 40.1263 53.1683 39.8677C49.6439 33.3362 39.4588 37.1193 39.3617 37.1516C38.9414 37.3133 38.4887 37.087 38.3271 36.699C38.1654 36.2786 38.3917 35.8259 38.7797 35.6643C38.9091 35.6319 50.3876 31.3639 54.591 39.124C54.8174 39.512 54.6557 39.997 54.2677 40.2234C54.1384 40.2557 54.009 40.288 53.8797 40.288Z" fill="#1C112E"/>
<path d="M86.7633 54.8384C86.7309 54.8384 86.6986 54.8384 86.6663 54.8384C86.2136 54.7737 85.9226 54.3857 85.9549 53.933C86.0843 52.8337 86.4399 51.702 87.0219 50.5056C91.096 42.1958 100.441 41.0318 104.288 42.2605C104.709 42.3898 104.935 42.8425 104.806 43.2628C104.676 43.6832 104.224 43.9095 103.803 43.7802C100.182 42.6161 91.9367 44.1035 88.477 51.1846C87.9919 52.187 87.6686 53.1893 87.5716 54.0947C87.5069 54.515 87.1513 54.8384 86.7633 54.8384Z" fill="#1C112E"/>
<path d="M91.4194 61.1434C90.9021 61.1434 90.3524 61.0464 89.7704 60.8524C87.5393 60.0441 85.47 57.5867 85.9227 53.933C85.9873 53.5449 86.3107 53.2539 86.6987 53.2216C88.2184 53.1569 89.8027 53.4479 91.4517 54.0623H91.4841C91.7428 54.1593 93.9738 55.1293 94.5558 57.0047C94.7498 57.6514 94.8145 58.6214 94.0708 59.7854C93.5211 60.6584 92.5511 61.1434 91.4194 61.1434ZM87.507 54.8383C87.4747 57.1987 88.865 58.783 90.3524 59.3327C91.2254 59.656 92.2924 59.656 92.7451 58.9124C93.0684 58.395 93.1654 57.9424 93.0361 57.4897C92.7451 56.5197 91.4194 55.776 90.9021 55.5496C89.738 55.1293 88.574 54.8706 87.507 54.8383Z" fill="#1C112E"/>
<path d="M76.3841 65.4762C76.3194 65.4762 76.2548 65.4762 76.1901 65.4438C75.7698 65.3468 75.4787 64.8942 75.5757 64.4738C75.6081 64.3768 76.2224 61.7255 77.8715 59.0417C80.1025 55.3557 83.1742 53.351 86.6986 53.1893C87.1513 53.157 87.507 53.5126 87.5393 53.9653C87.5716 54.418 87.2159 54.7737 86.7633 54.806C79.5528 55.097 77.1601 64.7648 77.1278 64.8618C77.0631 65.2498 76.7398 65.4762 76.3841 65.4762Z" fill="#1C112E"/>
</svg>
