<svg width="81" height="81" viewBox="0 0 81 81" fill="none" xmlns="http://www.w3.org/2000/svg">
<path d="M48.3675 24.3448H40.4898H32.612C30.5192 25.2854 28.6379 26.5787 27.0389 28.1778C25.0871 30.1061 23.5821 32.4576 22.6414 35.0914H12.13C10.5074 35.0914 9.21405 33.7745 9.21405 32.1754V23.4276C9.21405 21.8051 10.5309 20.5117 12.13 20.5117H68.826C70.4486 20.5117 71.742 21.8286 71.742 23.4276V32.1754C71.742 33.798 70.4251 35.0914 68.826 35.0914H58.3381C57.3975 32.4576 55.8925 30.1061 53.9407 28.1778C52.3416 26.5787 50.4604 25.2854 48.3675 24.3448Z" fill="#A9A3A1"/>
<path d="M59.4669 41.6288H54.8814C54.8814 37.6546 53.2823 34.0568 50.6486 31.4465L53.8937 28.2014L53.9172 28.1779C55.8455 30.1061 57.3505 32.4577 58.3146 35.0914C59.0671 37.1373 59.4669 39.3242 59.4669 41.6288Z" fill="#D4B265"/>
<path d="M54.8814 41.6287H59.4669C59.4669 46.8726 57.3505 51.6228 53.8937 55.056L50.6486 51.8109C53.2823 49.2007 54.8814 45.6028 54.8814 41.6287Z" fill="#D4B265"/>
<path d="M53.9407 28.1778L53.9171 28.2013L50.672 31.4464C48.0618 28.8362 44.4639 27.2371 40.4897 27.2371V24.3447H48.3675C50.4604 25.2854 52.3416 26.5787 53.9407 28.1778Z" fill="#D4B265"/>
<path d="M53.9172 55.0561C50.4839 58.4894 45.7337 60.6293 40.4897 60.6293V56.0438C44.4639 56.0438 48.0618 54.4447 50.672 51.8345L53.9172 55.0561Z" fill="#D4B265"/>
<path d="M50.672 31.4465C53.2822 34.0567 54.9048 37.6546 54.9048 41.6287C54.9048 45.6028 53.3057 49.2007 50.672 51.811C48.0617 54.4212 44.4639 56.0203 40.4897 56.0203C36.5156 56.0203 32.9177 54.4212 30.3075 51.811C27.6973 49.2007 26.0982 45.6028 26.0982 41.6287C26.0982 37.6546 27.6973 34.0567 30.3075 31.4465C32.9177 28.8362 36.5156 27.2372 40.4897 27.2372C44.4639 27.2372 48.0617 28.8362 50.672 31.4465Z" fill="#D4B265"/>
<path d="M40.4898 56.0203V60.6058C35.2459 60.6058 30.4957 58.4894 27.0624 55.0326L30.3076 51.7875C32.9178 54.4212 36.5157 56.0203 40.4898 56.0203Z" fill="#D4B265"/>
<path d="M40.4897 24.3447V27.2371C36.5156 27.2371 32.9177 28.8362 30.3075 31.4464L27.0623 28.2013L27.0388 28.1778C28.6379 26.5787 30.5191 25.2854 32.612 24.3447H40.4897Z" fill="#D4B265"/>
<path d="M30.3075 51.8109L27.0624 55.056C23.6291 51.6228 21.4892 46.8726 21.4892 41.6287H26.0747C26.0983 45.6028 27.6973 49.2007 30.3075 51.8109Z" fill="#D4B265"/>
<path d="M27.0624 28.2014L30.3075 31.4465C27.6973 34.0568 26.0983 37.6546 26.0983 41.6288H21.4892C21.4892 39.3242 21.889 37.1138 22.6179 35.0914C23.5586 32.4577 25.0636 30.1061 27.0154 28.1779L27.0624 28.2014Z" fill="#D4B265"/>
<path d="M60.0546 32.0343C59.7254 32.0343 59.4667 31.7756 59.4667 31.4464C59.4667 31.1172 59.7254 30.8585 60.0546 30.8585C60.8542 30.8585 61.5831 30.5528 62.1475 29.9885C62.7119 29.4241 63.0176 28.6951 63.0176 27.8956C63.0176 26.2495 61.6772 24.9326 60.0546 24.9326H20.9012C20.1017 24.9326 19.3727 25.2383 18.8083 25.8027C18.2439 26.3671 17.9382 27.1196 17.9382 27.8956C17.9382 29.5181 19.2786 30.8585 20.9012 30.8585C21.2304 30.8585 21.4891 31.1172 21.4891 31.4464C21.4891 31.7756 21.2304 32.0343 20.9012 32.0343C18.6202 32.0343 16.7625 30.1766 16.7625 27.8956C16.7625 26.7903 17.1857 25.7557 17.9853 24.9796C18.7613 24.2036 19.796 23.7568 20.9012 23.7568H60.0546C62.3356 23.7568 64.1934 25.6146 64.1934 27.8956C64.1934 29.0008 63.7701 30.0355 62.9706 30.8115C62.2181 31.611 61.1599 32.0343 60.0546 32.0343Z" fill="#1C112E"/>
<path d="M41.7831 47.4371H39.0318C37.856 47.4371 36.8919 46.473 36.8919 45.2972C36.8919 44.968 37.1506 44.7093 37.4798 44.7093C37.809 44.7093 38.0677 44.968 38.0677 45.2972C38.0677 45.8381 38.491 46.2614 39.0318 46.2614H41.7831C42.3945 46.2614 42.8884 45.7675 42.8884 45.1561V43.3219C42.8884 42.7105 42.3945 42.2167 41.7831 42.2167H39.1964C37.9266 42.2167 36.9154 41.182 36.9154 39.9357V38.1014C36.9154 36.8316 37.9501 35.8204 39.1964 35.8204H42.2299C43.2646 35.8204 44.0877 36.6435 44.0877 37.6782C44.0877 38.0074 43.829 38.2661 43.4998 38.2661C43.1706 38.2661 42.9119 38.0074 42.9119 37.6782C42.9119 37.3019 42.6062 36.9962 42.2299 36.9962H39.1964C38.585 36.9962 38.0912 37.49 38.0912 38.1014V39.9357C38.0912 40.5471 38.585 41.0409 39.1964 41.0409H41.7831C43.053 41.0409 44.0642 42.0756 44.0642 43.3219V45.1561C44.0642 46.426 43.053 47.4371 41.7831 47.4371Z" fill="#1C112E"/>
<path d="M40.4897 36.9962C40.1605 36.9962 39.9019 36.7375 39.9019 36.4083V34.8092C39.9019 34.48 40.1605 34.2213 40.4897 34.2213C40.819 34.2213 41.0776 34.48 41.0776 34.8092V36.4083C41.0776 36.7375 40.819 36.9962 40.4897 36.9962Z" fill="#1C112E"/>
<path d="M40.4897 49.0597C40.1605 49.0597 39.9019 48.801 39.9019 48.4718V46.8727C39.9019 46.5435 40.1605 46.2848 40.4897 46.2848C40.819 46.2848 41.0776 46.5435 41.0776 46.8727V48.4718C41.0776 48.801 40.819 49.0597 40.4897 49.0597Z" fill="#1C112E"/>
<path d="M40.4898 61.2172C35.2458 61.2172 30.3311 59.1714 26.6391 55.4794C22.9472 51.7875 20.9013 46.8727 20.9013 41.6287C20.9013 39.3007 21.3011 37.0432 22.0771 34.8798C23.0412 32.199 24.6168 29.7534 26.6156 27.7545C28.2852 26.1085 30.2135 24.7681 32.3769 23.8039C32.6826 23.6628 33.0118 23.8039 33.1529 24.1096C33.294 24.4153 33.1529 24.7446 32.8472 24.8856C30.8249 25.8028 28.9907 27.0491 27.4386 28.6011C25.5574 30.4824 24.0759 32.7869 23.1823 35.303C22.4533 37.3254 22.0771 39.4653 22.0771 41.6523C22.0771 46.567 23.9818 51.1996 27.4622 54.6564C30.9425 58.1367 35.5515 60.0414 40.4663 60.0414C45.381 60.0414 49.9901 58.1367 53.4704 54.6564C53.7055 54.4212 54.0818 54.4212 54.2934 54.6564C54.5286 54.8915 54.5286 55.2678 54.2934 55.4794C50.625 59.1714 45.7102 61.2172 40.4898 61.2172Z" fill="#1C112E"/>
<path d="M53.9172 55.644C53.7761 55.644 53.6115 55.5969 53.4939 55.4794C53.2588 55.2442 53.2588 54.868 53.4939 54.6563C56.9742 51.176 58.879 46.567 58.879 41.6522C58.879 39.4653 58.5027 37.3253 57.7738 35.303C56.8802 32.7868 55.3987 30.4823 53.5174 28.6011C51.9419 27.049 50.1312 25.8027 48.1089 24.8856C47.8032 24.7445 47.6856 24.4153 47.8032 24.1096C47.9442 23.8039 48.2735 23.6863 48.5792 23.8039C50.7426 24.768 52.6709 26.0849 54.3405 27.7545C56.3393 29.7533 57.9149 32.2225 58.879 34.8797C59.655 37.0196 60.0548 39.3007 60.0548 41.6287C60.0548 46.8492 58.0089 51.7639 54.317 55.4559C54.1994 55.5734 54.0583 55.644 53.9172 55.644Z" fill="#1C112E"/>
<path d="M40.4898 56.6082C36.4922 56.6082 32.7297 55.0561 29.8843 52.2108C27.0624 49.3889 25.4869 45.6264 25.4869 41.6052C25.4869 37.5841 27.0389 33.8451 29.8843 30.9997C32.7297 28.1543 36.4686 26.6023 40.4898 26.6023C44.4875 26.6023 48.25 28.1543 51.0718 30.9997C53.8937 33.8216 55.4692 37.5841 55.4692 41.6052C55.4692 45.6264 53.9172 49.3654 51.0718 52.2108C48.25 55.0561 44.4875 56.6082 40.4898 56.6082ZM40.4898 27.8251C36.7979 27.8251 33.3411 29.2596 30.7308 31.8698C28.1206 34.48 26.6862 37.9368 26.6862 41.6287C26.6862 45.3207 28.1206 48.7775 30.7308 51.3877C33.3411 53.9979 36.7979 55.4324 40.4898 55.4324C44.1818 55.4324 47.6385 53.9979 50.2488 51.3877C52.859 48.7775 54.2935 45.3207 54.2935 41.6287C54.2935 37.9368 52.859 34.4565 50.2488 31.8698C47.6385 29.2596 44.1818 27.8251 40.4898 27.8251Z" fill="#1C112E"/>
<path d="M40.4897 61.2172C40.1605 61.2172 39.9019 60.9586 39.9019 60.6293V56.0438C39.9019 55.7146 40.1605 55.4559 40.4897 55.4559C40.819 55.4559 41.0776 55.7146 41.0776 56.0438V60.6293C41.0776 60.935 40.819 61.2172 40.4897 61.2172Z" fill="#1C112E"/>
<path d="M26.0982 42.2166H21.4892C21.16 42.2166 20.9013 41.9579 20.9013 41.6287C20.9013 41.2994 21.16 41.0408 21.4892 41.0408H26.0747C26.404 41.0408 26.6626 41.2994 26.6626 41.6287C26.6626 41.9579 26.404 42.2166 26.0982 42.2166Z" fill="#1C112E"/>
<path d="M59.4669 42.2166H54.8813C54.5521 42.2166 54.2935 41.9579 54.2935 41.6287C54.2935 41.2994 54.5521 41.0408 54.8813 41.0408H59.4669C59.7961 41.0408 60.0548 41.2994 60.0548 41.6287C60.0548 41.9579 59.7961 42.2166 59.4669 42.2166Z" fill="#1C112E"/>
<path d="M30.3074 32.0343C30.1664 32.0343 30.0017 31.9873 29.8842 31.8697L26.639 28.6245C26.4039 28.3894 26.4039 28.0131 26.639 27.8015C26.8742 27.5663 27.2504 27.5663 27.4621 27.8015L30.7072 31.0466C30.9424 31.2818 30.9424 31.658 30.7072 31.8697C30.6131 31.9873 30.4485 32.0343 30.3074 32.0343Z" fill="#1C112E"/>
<path d="M53.9172 55.644H53.3293V55.2913L50.2488 52.2342C50.0136 51.9991 50.0136 51.6228 50.2488 51.4112C50.4839 51.1996 50.8602 51.176 51.0718 51.4112L54.4816 54.821V55.0091C54.4816 55.0326 54.4816 55.0561 54.4816 55.0561C54.5051 55.3853 54.2464 55.644 53.9172 55.644Z" fill="#1C112E"/>
<path d="M27.0623 55.6439C26.9212 55.6439 26.7566 55.5969 26.639 55.4793C26.4039 55.2442 26.4039 54.8679 26.639 54.6563L29.8842 51.4111C30.1193 51.176 30.4956 51.176 30.7072 51.4111C30.9424 51.6463 30.9424 52.0225 30.7072 52.2342L27.4621 55.4793C27.368 55.5969 27.2034 55.6439 27.0623 55.6439Z" fill="#1C112E"/>
<path d="M50.672 32.0343C50.5309 32.0343 50.3663 31.9873 50.2488 31.8697C50.0136 31.6345 50.0136 31.2583 50.2488 31.0466L53.4939 27.8015C53.7291 27.5663 54.1053 27.5663 54.3169 27.8015C54.5521 28.0366 54.5521 28.4129 54.3169 28.6245L51.0718 31.8697C50.9542 31.9873 50.8131 32.0343 50.672 32.0343Z" fill="#1C112E"/>
<path d="M40.4897 27.825C40.1605 27.825 39.9019 27.5664 39.9019 27.2371V24.3447C39.9019 24.0155 40.1605 23.7568 40.4897 23.7568C40.819 23.7568 41.0776 24.0155 41.0776 24.3447V27.2371C41.0776 27.5664 40.819 27.825 40.4897 27.825Z" fill="#1C112E"/>
<path d="M68.826 35.6793H58.3381C58.0089 35.6793 57.7502 35.4206 57.7502 35.0914C57.7502 34.7622 58.0089 34.5035 58.3381 34.5035H68.826C70.1194 34.5035 71.1541 33.4453 71.1541 32.1754V23.4277C71.1541 22.1343 70.0959 21.0996 68.826 21.0996H12.13C10.8366 21.0996 9.80194 22.1578 9.80194 23.4277V32.1754C9.80194 33.4688 10.8601 34.5035 12.13 34.5035H22.6414C22.9707 34.5035 23.2293 34.7622 23.2293 35.0914C23.2293 35.4206 22.9707 35.6793 22.6414 35.6793H12.13C10.2017 35.6793 8.62616 34.1037 8.62616 32.1754V23.4277C8.62616 21.4994 10.2017 19.9238 12.13 19.9238H68.826C70.7543 19.9238 72.3299 21.4994 72.3299 23.4277V32.1754C72.3534 34.1037 70.7778 35.6793 68.826 35.6793Z" fill="#1C112E"/>
</svg>
