<svg width="111" height="110" viewBox="0 0 111 110" fill="none" xmlns="http://www.w3.org/2000/svg">
<path d="M82.3712 82.6132V86.8812C82.3712 89.0476 77.0361 90.7936 70.4723 90.7936C63.9086 90.7936 58.5735 89.0476 58.5735 86.8812V86.6872V83.0012V82.6132C58.5735 84.7795 63.9086 86.5256 70.4723 86.5256C77.0361 86.5256 82.3712 84.7795 82.3712 82.6132Z" fill="#D4B265"/>
<path d="M82.3712 78.345V82.6131C82.3712 84.7794 77.0361 86.5255 70.4723 86.5255C63.9086 86.5255 58.5735 84.7794 58.5735 82.6131V82.419V78.733V78.345C58.5735 80.5113 63.9086 82.2574 70.4723 82.2574C77.0361 82.2574 82.3712 80.5113 82.3712 78.345Z" fill="#D4B265"/>
<path d="M82.3712 74.1094V78.3775C82.3712 80.5438 77.0361 82.2899 70.4723 82.2899C63.9086 82.2899 58.5735 80.5438 58.5735 78.3775V78.1835V74.4974V74.1094C58.5735 76.2757 63.9086 78.0218 70.4723 78.0218C77.0361 78.0218 82.3712 76.2434 82.3712 74.1094Z" fill="#D4B265"/>
<path d="M82.3712 69.8412V74.1093C82.3712 76.2756 77.0361 78.0217 70.4723 78.0217C63.9086 78.0217 58.5735 76.2756 58.5735 74.1093V73.8829V70.1969V69.8412C58.5735 72.0076 63.9086 73.7536 70.4723 73.7536C77.0361 73.7536 82.3712 72.0076 82.3712 69.8412Z" fill="#D4B265"/>
<path d="M82.3712 65.5731V69.8412C82.3712 72.0076 77.0361 73.7536 70.4723 73.7536C63.9086 73.7536 58.5735 72.0076 58.5735 69.8412V69.6472V65.9611V65.5731C58.5735 67.7395 63.9086 69.4855 70.4723 69.4855C77.0361 69.4855 82.3712 67.7395 82.3712 65.5731Z" fill="#D4B265"/>
<path d="M82.3712 61.3052V65.5732C82.3712 67.7396 77.0361 69.4856 70.4723 69.4856C63.9086 69.4856 58.5735 67.7396 58.5735 65.5732V65.3792V61.3375C58.5735 63.5039 63.9086 65.2499 70.4723 65.2499C77.0361 65.2499 82.3712 63.4715 82.3712 61.3052Z" fill="#D4B265"/>
<path d="M82.3712 57.037V61.3051C82.3712 63.4715 77.0361 65.2175 70.4723 65.2175C63.9086 65.2175 58.5735 63.4715 58.5735 61.3051V58.007V57.037C58.5735 59.2034 63.9086 60.9494 70.4723 60.9494C77.0361 60.9494 82.3712 59.2034 82.3712 57.037Z" fill="#D4B265"/>
<path d="M82.3712 52.8013V57.0694C82.3712 59.2357 77.0361 60.9818 70.4723 60.9818C63.9086 60.9818 58.5735 59.2357 58.5735 57.0694V52.8013C58.5735 54.9676 63.9086 56.7137 70.4723 56.7137C77.0361 56.7137 82.3712 54.9353 82.3712 52.8013Z" fill="#D4B265"/>
<path d="M82.3712 48.5332V52.8013C82.3712 54.9676 77.0361 56.7137 70.4723 56.7137C63.9086 56.7137 58.5735 54.9676 58.5735 52.8013V48.5332C58.5735 50.6996 63.9086 52.4456 70.4723 52.4456C77.0361 52.4456 82.3712 50.6996 82.3712 48.5332Z" fill="#D4B265"/>
<path d="M82.3712 44.2651V48.5332C82.3712 50.6996 77.0361 52.4456 70.4723 52.4456C63.9086 52.4456 58.5735 50.6996 58.5735 48.5332V44.2651C58.5735 46.4315 63.9086 48.1775 70.4723 48.1775C77.0361 48.1775 82.3712 46.4315 82.3712 44.2651Z" fill="#D4B265"/>
<path d="M82.3712 39.9971V44.2651C82.3712 46.4315 77.0361 48.1776 70.4723 48.1776C63.9086 48.1776 58.5735 46.4315 58.5735 44.2651V39.9971C58.5735 42.1634 63.9086 43.9095 70.4723 43.9095C77.0361 43.9095 82.3712 42.1634 82.3712 39.9971Z" fill="#D4B265"/>
<path d="M82.3712 35.729V39.9971C82.3712 42.1635 77.0361 43.9095 70.4723 43.9095C63.9086 43.9095 58.5735 42.1635 58.5735 39.9971V35.729C58.5735 37.8954 63.9086 39.6414 70.4723 39.6414C77.0361 39.6414 82.3712 37.8954 82.3712 35.729Z" fill="#D4B265"/>
<path d="M70.4723 31.8489C77.0361 31.8489 82.3712 33.5949 82.3712 35.7613C82.3712 37.9277 77.0361 39.6737 70.4723 39.6737C63.9086 39.6737 58.5735 37.9277 58.5735 35.7613C58.5735 33.5949 63.9086 31.8489 70.4723 31.8489Z" fill="#D4B265"/>
<path d="M58.5735 83.0012V86.6873C57.3125 86.849 55.9544 86.9136 54.5641 86.9136C53.1414 86.9136 51.8157 86.849 50.5547 86.6873V83.0012H58.5735Z" fill="#D4B265"/>
<path d="M58.5735 78.733V82.4191C57.3125 82.5808 55.9544 82.6454 54.5641 82.6454C53.1414 82.6454 51.8157 82.5808 50.5547 82.4191V78.733H58.5735Z" fill="#D4B265"/>
<path d="M58.5735 74.465V78.151C57.3125 78.3127 55.9544 78.3774 54.5641 78.3774C53.1414 78.3774 51.8157 78.3127 50.5547 78.151V74.465H58.5735Z" fill="#D4B265"/>
<path d="M58.5735 70.2292V73.9153C57.3125 74.077 55.9544 74.1416 54.5641 74.1416C53.1414 74.1416 51.8157 74.077 50.5547 73.9153V70.2292H58.5735Z" fill="#D4B265"/>
<path d="M58.5735 69.8412V70.2292H50.5547V69.8412V69.6472C51.8157 69.8089 53.1414 69.8736 54.5641 69.8736C55.9544 69.8736 57.3125 69.8089 58.5735 69.6472V69.8412Z" fill="#D4B265"/>
<path d="M58.5735 65.9612V69.6472C57.3125 69.8089 55.9544 69.8736 54.5641 69.8736C53.1414 69.8736 51.8157 69.8089 50.5547 69.6472V65.9612H58.5735Z" fill="#D4B265"/>
<path d="M58.5735 61.3052V65.3469C57.3125 65.5086 55.9544 65.5732 54.5641 65.5732C53.1414 65.5732 51.8157 65.5086 50.5547 65.3469V61.3052V58.0071C51.8157 57.8454 53.1414 57.7808 54.5641 57.7808C55.9544 57.7808 57.3125 57.8454 58.5735 58.0071V61.3052Z" fill="#D4B265"/>
<path d="M50.5547 86.6872V86.8812C50.5547 89.0476 45.2196 90.7936 38.6558 90.7936C32.092 90.7936 26.7569 89.0476 26.7569 86.8812V86.2022V82.6132C26.7569 84.7795 32.092 86.5256 38.6558 86.5256C45.2196 86.5256 50.5547 84.7795 50.5547 82.6132V83.0012V86.6872Z" fill="#D4B265"/>
<path d="M50.5547 82.419V82.6131C50.5547 84.7794 45.2196 86.5255 38.6558 86.5255C32.092 86.5255 26.7569 84.7794 26.7569 82.6131V78.345C26.7569 80.5113 32.092 82.2574 38.6558 82.2574C45.2196 82.2574 50.5547 80.5113 50.5547 78.345V78.733V82.419Z" fill="#D4B265"/>
<path d="M50.5547 78.1511V78.3451C50.5547 80.5115 45.2196 82.2575 38.6558 82.2575C32.092 82.2575 26.7569 80.5115 26.7569 78.3451V74.077C26.7569 76.2434 32.092 77.9894 38.6558 77.9894C45.2196 77.9894 50.5547 76.2434 50.5547 74.077V74.465V78.1511Z" fill="#D4B265"/>
<path d="M50.5547 73.8829V74.1093C50.5547 76.2756 45.2196 78.0217 38.6558 78.0217C32.092 78.0217 26.7569 76.2433 26.7569 74.1093V69.8412C26.7569 72.0076 32.092 73.7536 38.6558 73.7536C45.2196 73.7536 50.5547 72.0076 50.5547 69.8412V70.2292V73.8829Z" fill="#D4B265"/>
<path d="M50.5547 69.6472V69.8412C50.5547 72.0076 45.2196 73.7536 38.6558 73.7536C32.092 73.7536 26.7569 72.0076 26.7569 69.8412V65.5731C26.7569 67.7395 32.092 69.4855 38.6558 69.4855C45.2196 69.4855 50.5547 67.7395 50.5547 65.5731V65.9611V69.6472Z" fill="#D4B265"/>
<path d="M50.5547 65.3792V65.5732C50.5547 67.7396 45.2196 69.4856 38.6558 69.4856C32.092 69.4856 26.7569 67.7396 26.7569 65.5732V61.3052C26.7569 63.4715 32.092 65.2176 38.6558 65.2176C45.2196 65.2176 50.5547 63.4715 50.5547 61.3052V65.3792Z" fill="#D4B265"/>
<path d="M50.5547 58.007V61.3051C50.5547 63.4715 45.2196 65.2175 38.6558 65.2175C32.092 65.2175 26.7569 63.4715 26.7569 61.3051V57.037C26.7569 59.2034 32.092 60.9494 38.6558 60.9494C45.2196 60.9494 50.5547 59.2034 50.5547 57.037V58.007Z" fill="#D4B265"/>
<path d="M50.5547 52.8013V57.0693C50.5547 59.2357 45.2196 60.9817 38.6558 60.9817C32.092 60.9817 26.7569 59.2034 26.7569 57.037V52.7689C26.7569 54.9353 32.092 56.6813 38.6558 56.6813C45.2196 56.6813 50.5547 54.9353 50.5547 52.8013Z" fill="#D4B265"/>
<path d="M38.6558 48.8889C45.2196 48.8889 50.5547 50.6349 50.5547 52.8013C50.5547 54.9677 45.2196 56.7137 38.6558 56.7137C32.092 56.7137 26.7569 54.9353 26.7569 52.8013C26.7569 50.6673 32.092 48.8889 38.6558 48.8889Z" fill="#D4B265"/>
<path d="M38.6558 57.4896C32.3507 57.4896 25.9485 55.8729 25.9485 52.7688C25.9485 49.6648 32.3507 48.0481 38.6558 48.0481C44.9609 48.0481 51.363 49.6648 51.363 52.7688C51.363 55.8729 44.9609 57.4896 38.6558 57.4896ZM38.6558 49.6971C31.3806 49.6971 27.5652 51.7018 27.5652 52.8012C27.5652 53.8682 31.3806 55.9052 38.6558 55.9052C45.9309 55.9052 49.7463 53.9005 49.7463 52.8012C49.7463 51.7018 45.9309 49.6971 38.6558 49.6971Z" fill="#1C112E"/>
<path d="M38.6558 61.7577C32.3507 61.7577 25.9485 60.141 25.9485 57.037C25.9485 56.5843 26.3042 56.2286 26.7569 56.2286C27.2096 56.2286 27.5652 56.5843 27.5652 57.037C27.5652 58.104 31.3806 60.141 38.6558 60.141C45.9309 60.141 49.7463 58.1363 49.7463 57.037C49.7463 56.5843 50.102 56.2286 50.5547 56.2286C51.0073 56.2286 51.363 56.5843 51.363 57.037C51.363 60.141 44.9609 61.7577 38.6558 61.7577Z" fill="#1C112E"/>
<path d="M38.6558 66.0258C32.3507 66.0258 25.9485 64.4091 25.9485 61.3051C25.9485 60.8524 26.3042 60.4967 26.7569 60.4967C27.2096 60.4967 27.5652 60.8524 27.5652 61.3051C27.5652 62.3721 31.3806 64.4091 38.6558 64.4091C45.9309 64.4091 49.7463 62.4044 49.7463 61.3051C49.7463 60.8524 50.102 60.4967 50.5547 60.4967C51.0073 60.4967 51.363 60.8524 51.363 61.3051C51.363 64.4091 44.9609 66.0258 38.6558 66.0258Z" fill="#1C112E"/>
<path d="M38.6558 70.2939C32.3507 70.2939 25.9485 68.6772 25.9485 65.5731C25.9485 65.1204 26.3042 64.7648 26.7569 64.7648C27.2096 64.7648 27.5652 65.1204 27.5652 65.5731C27.5652 66.6401 31.3806 68.6772 38.6558 68.6772C45.9309 68.6772 49.7463 66.6725 49.7463 65.5731C49.7463 65.1204 50.102 64.7648 50.5547 64.7648C51.0073 64.7648 51.363 65.1204 51.363 65.5731C51.363 68.6772 44.9609 70.2939 38.6558 70.2939Z" fill="#1C112E"/>
<path d="M38.6558 74.562C32.3507 74.562 25.9485 72.9452 25.9485 69.8412C25.9485 69.3885 26.3042 69.0328 26.7569 69.0328C27.2096 69.0328 27.5652 69.3885 27.5652 69.8412C27.5652 70.9082 31.3806 72.9453 38.6558 72.9453C45.9309 72.9453 49.7463 70.9405 49.7463 69.8412C49.7463 69.3885 50.102 69.0328 50.5547 69.0328C51.0073 69.0328 51.363 69.3885 51.363 69.8412C51.363 72.9452 44.9609 74.562 38.6558 74.562Z" fill="#1C112E"/>
<path d="M38.6558 78.7977C32.3507 78.7977 25.9485 77.181 25.9485 74.0769C25.9485 73.6242 26.3042 73.2686 26.7569 73.2686C27.2096 73.2686 27.5652 73.6242 27.5652 74.0769C27.5652 75.1439 31.3806 77.181 38.6558 77.181C45.9309 77.181 49.7463 75.1763 49.7463 74.0769C49.7463 73.6242 50.102 73.2686 50.5547 73.2686C51.0073 73.2686 51.363 73.6242 51.363 74.0769C51.363 77.181 44.9609 78.7977 38.6558 78.7977Z" fill="#1C112E"/>
<path d="M38.6558 83.0657C32.3507 83.0657 25.9485 81.449 25.9485 78.345C25.9485 77.8923 26.3042 77.5366 26.7569 77.5366C27.2096 77.5366 27.5652 77.8923 27.5652 78.345C27.5652 79.412 31.3806 81.449 38.6558 81.449C45.9309 81.449 49.7463 79.4443 49.7463 78.345C49.7463 77.8923 50.102 77.5366 50.5547 77.5366C51.0073 77.5366 51.363 77.8923 51.363 78.345C51.363 81.449 44.9609 83.0657 38.6558 83.0657Z" fill="#1C112E"/>
<path d="M38.6558 87.3339C32.3507 87.3339 25.9485 85.7172 25.9485 82.6132C25.9485 82.1605 26.3042 81.8048 26.7569 81.8048C27.2096 81.8048 27.5652 82.1605 27.5652 82.6132C27.5652 83.6802 31.3806 85.7172 38.6558 85.7172C45.9309 85.7172 49.7463 83.7125 49.7463 82.6132C49.7463 82.1605 50.102 81.8048 50.5547 81.8048C51.0073 81.8048 51.363 82.1605 51.363 82.6132C51.363 85.7172 44.9609 87.3339 38.6558 87.3339Z" fill="#1C112E"/>
<path d="M38.6558 91.602C32.3507 91.602 25.9485 89.9853 25.9485 86.8812C25.9485 86.4285 26.3042 86.0729 26.7569 86.0729C27.2096 86.0729 27.5652 86.4285 27.5652 86.8812C27.5652 87.9482 31.3806 89.9853 38.6558 89.9853C45.9309 89.9853 49.7463 87.9806 49.7463 86.8812C49.7463 86.4285 50.102 86.0729 50.5547 86.0729C51.0073 86.0729 51.363 86.4285 51.363 86.8812C51.363 89.9853 44.9609 91.602 38.6558 91.602Z" fill="#1C112E"/>
<path d="M26.7569 87.0105C26.3042 87.0105 25.9485 86.6549 25.9485 86.2022V52.8013C25.9485 52.3486 26.3042 51.9929 26.7569 51.9929C27.2096 51.9929 27.5652 52.3486 27.5652 52.8013V86.2022C27.5652 86.6549 27.2096 87.0105 26.7569 87.0105Z" fill="#1C112E"/>
<path d="M50.5547 87.6895C50.102 87.6895 49.7463 87.3338 49.7463 86.8811V86.6871C49.7463 86.2345 50.102 85.8788 50.5547 85.8788C51.0074 85.8788 51.363 86.2345 51.363 86.6871V86.8811C51.363 87.3338 51.0074 87.6895 50.5547 87.6895Z" fill="#1C112E"/>
<path d="M50.5547 83.8094C50.102 83.8094 49.7463 83.4537 49.7463 83.0011V82.4191C49.7463 81.9664 50.102 81.6107 50.5547 81.6107C51.0074 81.6107 51.363 81.9664 51.363 82.4191V83.0011C51.363 83.4537 51.0074 83.8094 50.5547 83.8094Z" fill="#1C112E"/>
<path d="M50.5547 79.5414C50.102 79.5414 49.7463 79.1857 49.7463 78.733V78.151C49.7463 77.6983 50.102 77.3427 50.5547 77.3427C51.0074 77.3427 51.363 77.6983 51.363 78.151V78.733C51.363 79.1857 51.0074 79.5414 50.5547 79.5414Z" fill="#1C112E"/>
<path d="M50.5547 75.2733C50.102 75.2733 49.7463 74.9176 49.7463 74.4649V73.8829C49.7463 73.4303 50.102 73.0746 50.5547 73.0746C51.0074 73.0746 51.363 73.4303 51.363 73.8829V74.4649C51.363 74.9176 51.0074 75.2733 50.5547 75.2733Z" fill="#1C112E"/>
<path d="M50.5547 71.0376C50.102 71.0376 49.7463 70.6819 49.7463 70.2292V69.6472C49.7463 69.1945 50.102 68.8389 50.5547 68.8389C51.0074 68.8389 51.363 69.1945 51.363 69.6472V70.2292C51.363 70.6496 51.0074 71.0376 50.5547 71.0376Z" fill="#1C112E"/>
<path d="M50.5547 66.7695C50.102 66.7695 49.7463 66.4138 49.7463 65.9612V65.3792C49.7463 64.9265 50.102 64.5708 50.5547 64.5708C51.0074 64.5708 51.363 64.9265 51.363 65.3792V65.9612C51.363 66.3815 51.0074 66.7695 50.5547 66.7695Z" fill="#1C112E"/>
<path d="M50.5547 58.8154C50.102 58.8154 49.7463 58.4597 49.7463 58.007V52.8013C49.7463 52.3486 50.102 51.9929 50.5547 51.9929C51.0074 51.9929 51.363 52.3486 51.363 52.8013V58.007C51.363 58.4597 51.0074 58.8154 50.5547 58.8154Z" fill="#1C112E"/>
<path d="M70.4723 40.4497C64.1672 40.4497 57.7651 38.833 57.7651 35.7289C57.7651 32.6249 64.1672 31.0082 70.4723 31.0082C76.7774 31.0082 83.1796 32.6249 83.1796 35.7289C83.1796 38.833 76.7774 40.4497 70.4723 40.4497ZM70.4723 32.6572C63.1972 32.6572 59.3818 34.6619 59.3818 35.7613C59.3818 36.8283 63.1972 38.8653 70.4723 38.8653C77.7475 38.8653 81.5629 36.8606 81.5629 35.7613C81.5629 34.6619 77.7475 32.6572 70.4723 32.6572Z" fill="#1C112E"/>
<path d="M70.4723 44.7177C64.1672 44.7177 57.7651 43.101 57.7651 39.9969C57.7651 39.5443 58.1208 39.1886 58.5735 39.1886C59.0261 39.1886 59.3818 39.5443 59.3818 39.9969C59.3818 41.064 63.1972 43.101 70.4723 43.101C77.7475 43.101 81.5629 41.0963 81.5629 39.9969C81.5629 39.5443 81.9185 39.1886 82.3712 39.1886C82.8239 39.1886 83.1796 39.5443 83.1796 39.9969C83.1796 43.101 76.7774 44.7177 70.4723 44.7177Z" fill="#1C112E"/>
<path d="M70.4723 48.9859C64.1672 48.9859 57.7651 47.3692 57.7651 44.2651C57.7651 43.8125 58.1208 43.4568 58.5735 43.4568C59.0261 43.4568 59.3818 43.8125 59.3818 44.2651C59.3818 45.3322 63.1972 47.3692 70.4723 47.3692C81.5629 47.3692 81.5629 44.2651 81.5629 44.2651C81.5629 44.2651 81.9185 43.4568 82.3712 43.4568C82.8239 43.4568 83.1796 43.8125 83.1796 44.2651C83.1796 47.3692 76.7774 48.9859 70.4723 48.9859Z" fill="#1C112E"/>
<path d="M70.4723 53.2538C64.1672 53.2538 57.7651 51.6371 57.7651 48.5331C57.7651 48.0804 58.1208 47.7247 58.5735 47.7247C59.0261 47.7247 59.3818 48.0804 59.3818 48.5331C59.3818 49.6001 63.1972 51.6371 70.4723 51.6371C77.7475 51.6371 81.5629 49.6324 81.5629 48.5331C81.5629 48.0804 81.9185 47.7247 82.3712 47.7247C82.8239 47.7247 83.1796 48.0804 83.1796 48.5331C83.1796 51.6371 76.7774 53.2538 70.4723 53.2538Z" fill="#1C112E"/>
<path d="M70.4723 57.4897C64.1672 57.4897 57.7651 55.873 57.7651 52.7689C57.7651 52.3162 58.1208 51.9606 58.5735 51.9606C59.0261 51.9606 59.3818 52.3162 59.3818 52.7689C59.3818 53.8359 63.1972 55.873 70.4723 55.873C77.7475 55.873 81.5629 53.8683 81.5629 52.7689C81.5629 52.3162 81.9185 51.9606 82.3712 51.9606C82.8239 51.9606 83.1796 52.3162 83.1796 52.7689C83.1796 55.873 76.7774 57.4897 70.4723 57.4897Z" fill="#1C112E"/>
<path d="M70.4723 61.7577C64.1672 61.7577 57.7651 60.141 57.7651 57.037C57.7651 56.5843 58.1208 56.2286 58.5735 56.2286C59.0261 56.2286 59.3818 56.5843 59.3818 57.037C59.3818 58.104 63.1972 60.141 70.4723 60.141C77.7475 60.141 81.5629 58.1363 81.5629 57.037C81.5629 56.5843 81.9185 56.2286 82.3712 56.2286C82.8239 56.2286 83.1796 56.5843 83.1796 57.037C83.1796 60.141 76.7774 61.7577 70.4723 61.7577Z" fill="#1C112E"/>
<path d="M70.4723 66.0258C64.1672 66.0258 57.7651 64.4091 57.7651 61.3051C57.7651 60.8524 58.1208 60.4967 58.5735 60.4967C59.0261 60.4967 59.3818 60.8524 59.3818 61.3051C59.3818 62.3721 63.1972 64.4091 70.4723 64.4091C77.7475 64.4091 81.5629 62.4044 81.5629 61.3051C81.5629 60.8524 81.9185 60.4967 82.3712 60.4967C82.8239 60.4967 83.1796 60.8524 83.1796 61.3051C83.1796 64.4091 76.7774 66.0258 70.4723 66.0258Z" fill="#1C112E"/>
<path d="M70.4723 70.2939C64.1672 70.2939 57.7651 68.6772 57.7651 65.5731C57.7651 65.1204 58.1208 64.7648 58.5735 64.7648C59.0261 64.7648 59.3818 65.1204 59.3818 65.5731C59.3818 66.6401 63.1972 68.6772 70.4723 68.6772C77.7475 68.6772 81.5629 66.6725 81.5629 65.5731C81.5629 65.1204 81.9185 64.7648 82.3712 64.7648C82.8239 64.7648 83.1796 65.1204 83.1796 65.5731C83.1796 68.6772 76.7774 70.2939 70.4723 70.2939Z" fill="#1C112E"/>
<path d="M70.4723 74.562C64.1672 74.562 57.7651 72.9452 57.7651 69.8412C57.7651 69.3885 58.1208 69.0328 58.5735 69.0328C59.0261 69.0328 59.3818 69.3885 59.3818 69.8412C59.3818 70.9082 63.1972 72.9453 70.4723 72.9453C77.7475 72.9453 81.5629 70.9405 81.5629 69.8412C81.5629 69.3885 81.9185 69.0328 82.3712 69.0328C82.8239 69.0328 83.1796 69.3885 83.1796 69.8412C83.1796 72.9452 76.7774 74.562 70.4723 74.562Z" fill="#1C112E"/>
<path d="M70.4723 78.7977C64.1672 78.7977 57.7651 77.181 57.7651 74.0769C57.7651 73.6242 58.1208 73.2686 58.5735 73.2686C59.0261 73.2686 59.3818 73.6242 59.3818 74.0769C59.3818 75.1439 63.1972 77.181 70.4723 77.181C77.7475 77.181 81.5629 75.1763 81.5629 74.0769C81.5629 73.6242 81.9185 73.2686 82.3712 73.2686C82.8239 73.2686 83.1796 73.6242 83.1796 74.0769C83.1796 77.181 76.7774 78.7977 70.4723 78.7977Z" fill="#1C112E"/>
<path d="M70.4723 83.0657C64.1672 83.0657 57.7651 81.449 57.7651 78.345C57.7651 77.8923 58.1208 77.5366 58.5735 77.5366C59.0261 77.5366 59.3818 77.8923 59.3818 78.345C59.3818 79.412 63.1972 81.449 70.4723 81.449C77.7475 81.449 81.5629 79.4443 81.5629 78.345C81.5629 77.8923 81.9185 77.5366 82.3712 77.5366C82.8239 77.5366 83.1796 77.8923 83.1796 78.345C83.1796 81.449 76.7774 83.0657 70.4723 83.0657Z" fill="#1C112E"/>
<path d="M70.4723 87.3339C64.1672 87.3339 57.7651 85.7172 57.7651 82.6132C57.7651 82.1605 58.1208 81.8048 58.5735 81.8048C59.0261 81.8048 59.3818 82.1605 59.3818 82.6132C59.3818 83.6802 63.1972 85.7172 70.4723 85.7172C77.7475 85.7172 81.5629 83.7125 81.5629 82.6132C81.5629 82.1605 81.9185 81.8048 82.3712 81.8048C82.8239 81.8048 83.1796 82.1605 83.1796 82.6132C83.1796 85.7172 76.7774 87.3339 70.4723 87.3339Z" fill="#1C112E"/>
<path d="M70.4723 91.602C64.1672 91.602 57.7651 89.9853 57.7651 86.8812C57.7651 86.4285 58.1208 86.0729 58.5735 86.0729C59.0261 86.0729 59.3818 86.4285 59.3818 86.8812C59.3818 87.9482 63.1972 89.9853 70.4723 89.9853C77.7475 89.9853 81.5629 87.9806 81.5629 86.8812C81.5629 86.4285 81.9185 86.0729 82.3712 86.0729C82.8239 86.0729 83.1796 86.4285 83.1796 86.8812C83.1796 89.9853 76.7774 91.602 70.4723 91.602Z" fill="#1C112E"/>
<path d="M58.5735 87.6895C58.1208 87.6895 57.7651 87.3338 57.7651 86.8811V86.6871C57.7651 86.2345 58.1208 85.8788 58.5735 85.8788C59.0261 85.8788 59.3818 86.2345 59.3818 86.6871V86.8811C59.3818 87.3338 59.0261 87.6895 58.5735 87.6895Z" fill="#1C112E"/>
<path d="M58.5735 83.8094C58.1208 83.8094 57.7651 83.4537 57.7651 83.0011V82.4191C57.7651 81.9664 58.1208 81.6107 58.5735 81.6107C59.0261 81.6107 59.3818 81.9664 59.3818 82.4191V83.0011C59.3818 83.4537 59.0261 83.8094 58.5735 83.8094Z" fill="#1C112E"/>
<path d="M58.5735 79.5414C58.1208 79.5414 57.7651 79.1857 57.7651 78.733V78.151C57.7651 77.6983 58.1208 77.3427 58.5735 77.3427C59.0261 77.3427 59.3818 77.6983 59.3818 78.151V78.733C59.3818 79.1857 59.0261 79.5414 58.5735 79.5414Z" fill="#1C112E"/>
<path d="M58.5735 75.2733C58.1208 75.2733 57.7651 74.9176 57.7651 74.4649V73.8829C57.7651 73.4303 58.1208 73.0746 58.5735 73.0746C59.0261 73.0746 59.3818 73.4303 59.3818 73.8829V74.4649C59.3818 74.9176 59.0261 75.2733 58.5735 75.2733Z" fill="#1C112E"/>
<path d="M58.5735 71.0376C58.1208 71.0376 57.7651 70.6819 57.7651 70.2292V69.6472C57.7651 69.1945 58.1208 68.8389 58.5735 68.8389C59.0261 68.8389 59.3818 69.1945 59.3818 69.6472V70.2292C59.3818 70.6496 59.0261 71.0376 58.5735 71.0376Z" fill="#1C112E"/>
<path d="M58.5735 66.7695C58.1208 66.7695 57.7651 66.4138 57.7651 65.9612V65.3792C57.7651 64.9265 58.1208 64.5708 58.5735 64.5708C59.0261 64.5708 59.3818 64.9265 59.3818 65.3792V65.9612C59.3818 66.3815 59.0261 66.7695 58.5735 66.7695Z" fill="#1C112E"/>
<path d="M58.5735 58.8154C58.1208 58.8154 57.7651 58.4597 57.7651 58.0071V35.729C57.7651 35.2763 58.1208 34.9207 58.5735 34.9207C59.0261 34.9207 59.3818 35.2763 59.3818 35.729V58.0071C59.3818 58.4597 59.0261 58.8154 58.5735 58.8154Z" fill="#1C112E"/>
<path d="M82.3712 87.6896C81.9185 87.6896 81.5629 87.3339 81.5629 86.8813V35.729C81.5629 35.2763 81.9185 34.9207 82.3712 34.9207C82.8239 34.9207 83.1796 35.2763 83.1796 35.729V86.8813C83.1796 87.3339 82.8239 87.6896 82.3712 87.6896Z" fill="#1C112E"/>
<path d="M54.5641 79.1857C53.1414 79.1857 51.7834 79.121 50.4577 78.9594L49.7463 78.8624V73.6566H59.3818V78.8624L58.6705 78.9594C57.3448 79.121 55.9545 79.1857 54.5641 79.1857ZM51.363 77.4397C53.4324 77.6337 55.6958 77.6337 57.7652 77.4397V75.3056H51.363V77.4397Z" fill="#1C112E"/>
<path d="M54.5641 83.4538C53.1414 83.4538 51.7834 83.3891 50.4577 83.2274L49.7463 83.1304V77.9247H59.3818V83.1304L58.6705 83.2274C57.3448 83.3568 55.9545 83.4538 54.5641 83.4538ZM51.363 81.6754C53.4324 81.8694 55.6958 81.8694 57.7652 81.6754V79.5414H51.363V81.6754Z" fill="#1C112E"/>
<path d="M54.5641 87.7218C53.1414 87.7218 51.7834 87.6572 50.4577 87.4955L49.7463 87.3985V82.1927H59.3818V87.3985L58.6705 87.4955C57.3448 87.6248 55.9545 87.7218 54.5641 87.7218ZM51.363 85.9435C53.4324 86.1375 55.6958 86.1375 57.7652 85.9435V83.8094H51.363V85.9435Z" fill="#1C112E"/>
<path d="M54.5641 70.6819C53.1414 70.6819 51.7834 70.6173 50.4577 70.4556L49.7463 70.3586V65.1528H59.3818V70.3586L58.6705 70.4556C57.3448 70.5849 55.9545 70.6819 54.5641 70.6819ZM51.363 68.9036C53.4324 69.0976 55.6958 69.0976 57.7652 68.9036V66.7695H51.363V68.9036Z" fill="#1C112E"/>
<path d="M54.5641 66.4138C53.1414 66.4138 51.7834 66.3492 50.4577 66.1875L49.7463 66.0905V57.2957L50.4577 57.1987C53.0767 56.8753 56.0191 56.8753 58.6705 57.1987L59.3818 57.2957V66.0905L58.6705 66.1875C57.3448 66.3168 55.9545 66.4138 54.5641 66.4138ZM51.363 64.6355C53.4324 64.8295 55.6958 64.8295 57.7652 64.6355V58.7507C55.6958 58.5567 53.4324 58.5567 51.363 58.7507V64.6355Z" fill="#1C112E"/>
<path d="M54.5641 74.9176C53.1414 74.9176 51.7834 74.853 50.4577 74.6913L49.7463 74.5943V69.3885H59.3818V74.5943L58.6705 74.6913C57.3448 74.853 55.9545 74.9176 54.5641 74.9176ZM51.363 73.1716C53.4324 73.3656 55.6958 73.3656 57.7652 73.1716V71.0376H51.363V73.1716Z" fill="#1C112E"/>
<path d="M28.6646 45.7201C28.4706 45.7201 28.3089 45.6555 28.1472 45.5261L24.7199 42.7454C24.3642 42.4544 24.3318 41.9694 24.5905 41.6137C24.8815 41.2581 25.3665 41.2257 25.7222 41.4844L29.1496 44.2651C29.5053 44.5561 29.5376 45.0411 29.2789 45.3968C29.1173 45.6231 28.8909 45.7201 28.6646 45.7201Z" fill="#1C112E"/>
<path d="M33.0944 42.2928C32.771 42.2928 32.48 42.0988 32.3507 41.8078L30.637 37.7337C30.4753 37.3134 30.6693 36.8607 31.0573 36.6667C31.4777 36.505 31.9303 36.699 32.1243 37.087L33.838 41.1611C33.9997 41.5814 33.8057 42.0341 33.4177 42.2281C33.2884 42.2604 33.1914 42.2928 33.0944 42.2928Z" fill="#1C112E"/>
<path d="M38.6558 42.0664C38.5588 42.0664 38.4618 42.0341 38.3648 42.0018C37.9444 41.8401 37.7504 41.3874 37.8798 40.9671L39.4318 36.8283C39.5935 36.408 40.0461 36.214 40.4665 36.3433C40.8868 36.505 41.0808 36.9577 40.9515 37.378L39.3995 41.5167C39.3025 41.8401 38.9791 42.0664 38.6558 42.0664Z" fill="#1C112E"/>
<path d="M69.7933 26.4815C69.47 26.4815 69.1466 26.2551 69.0173 25.9318L67.5623 21.7607C67.4329 21.3404 67.6269 20.8877 68.0473 20.726C68.4676 20.5643 68.9203 20.7907 69.0819 21.211L70.537 25.3821C70.6663 25.8024 70.4723 26.2551 70.052 26.4168C69.955 26.4491 69.858 26.4815 69.7933 26.4815Z" fill="#1C112E"/>
<path d="M75.3548 25.8671C75.3225 25.8671 75.2578 25.8671 75.2255 25.8671C74.7728 25.8024 74.4818 25.3821 74.5464 24.9294L75.2255 20.5643C75.2901 20.1116 75.7105 19.8206 76.1631 19.8853C76.6158 19.95 76.9068 20.3703 76.8422 20.823L76.1631 25.1881C76.0985 25.6084 75.7428 25.8671 75.3548 25.8671Z" fill="#1C112E"/>
<path d="M80.0756 27.8394C79.8492 27.8394 79.5906 27.7424 79.4289 27.5161C79.1702 27.1604 79.2349 26.6431 79.5906 26.3844L83.0826 23.7007C83.4383 23.442 83.9556 23.5067 84.2143 23.8623C84.473 24.218 84.4083 24.7354 84.0526 24.994L80.5606 27.6777C80.4312 27.7747 80.2372 27.8394 80.0756 27.8394Z" fill="#1C112E"/>
</svg>
