<?xml version="1.0" encoding="utf-8"?>
<!-- Generator: Adobe Illustrator 25.0.1, SVG Export Plug-In . SVG Version: 6.00 Build 0)  -->
<svg version="1.1" xmlns="http://www.w3.org/2000/svg" xmlns:xlink="http://www.w3.org/1999/xlink" x="0px" y="0px"
	 viewBox="0 0 602.5 518" style="enable-background:new 0 0 602.5 518;" xml:space="preserve">
<style type="text/css">
	.st0{fill:#E54A9A;}
	.st1{fill:#1C112E;}
	.st2{fill:#0492CE;}
	.st3{fill:#FFCC51;}
	.st4{fill:#ED2227;}
	.st5{fill:#7093C7;}
	.st6{fill:#AD2078;}
	.st7{fill:#F2B11C;}
	.st8{fill:#00A8C2;}
	.st9{fill:#0A4369;}
	.st10{fill:#EFB221;}
	.st11{fill:#FFFFFF;}
	.st12{fill:#F68C39;}
	.st13{fill:#00BCC5;}
	.st14{fill:#8D54A2;}
	.st15{fill:#1199D6;}
	.st16{fill:#51B848;}
	.st17{fill:#FEDF00;}
	.st18{fill:#EC2027;}
	.st19{clip-path:url(#SVGID_2_);}
	.st20{fill:#D4B265;}
	.st21{fill:#058342;}
	.st22{fill:#98CA3D;}
	.st23{fill:#23BDBD;}
	.st24{fill:#FED502;}
	.st25{fill:#F49CC1;}
	.st26{fill:#A9A3A1;}
	.st27{fill:#2FC0CF;}
	.st28{fill:#F6E2C9;}
	.st29{fill:#D9EFF2;}
	.st30{fill:#F15B2E;}
	.st31{fill:#A51E24;}
	.st32{fill:#F3A591;}
	.st33{fill:none;stroke:#1C112E;stroke-width:3;stroke-linecap:round;stroke-linejoin:round;stroke-miterlimit:10;}
	.st34{fill:none;stroke:#1C112E;stroke-width:5;stroke-linecap:round;stroke-linejoin:round;stroke-miterlimit:10;}
	.st35{fill:#CA797E;}
	.st36{fill:none;stroke:#1C112E;stroke-width:5;stroke-linecap:round;stroke-miterlimit:10;}
	.st37{fill:none;stroke:#A51E24;stroke-width:10;stroke-linecap:round;stroke-linejoin:round;stroke-miterlimit:10;}
	.st38{fill:none;stroke:#FFFFFF;stroke-width:5;stroke-linecap:round;stroke-linejoin:round;stroke-miterlimit:10;}
	.st39{fill:none;stroke:#1C112E;stroke-width:7;stroke-linecap:round;stroke-linejoin:round;stroke-miterlimit:10;}
</style>
<g id="SCAN">
</g>
<g id="FOOTER">
</g>
<g id="BLOCKS">
</g>
<g id="SIGN_UP">
</g>
<g id="HEADER">
</g>
<g id="COPY">
</g>
<g id="TABLE">
</g>
<g id="BUTTONS__x2F__SCROLL_MENUS">
</g>
<g id="POP_UPS">
</g>
<g id="GRAPHICS__x2F__ICONS">
</g>
<g id="MAIN_MENU">
</g>
<g id="SCREEN_GUIDES">
</g>
<g id="SOCIAL_ICONS">
</g>
<g id="LOGO">
	<g>
		<g id="XMLID_44_">
			<g>
				<path class="st29" d="M519.2,105.5c0,0,0.9,21.8,11.4,21.8c-10.5,0-11.4,21.8-11.4,21.8s-0.9-21.8-11.4-21.8
					C518.3,127.4,519.2,105.5,519.2,105.5z"/>
				<path class="st29" d="M477.6,157.5c5.4-13.4,6.1-30.2,6.1-30.2s2,46.3,24.1,46.3c-22.2,0-24.1,46.3-24.1,46.3s-0.2-5.1-1.3-11.9
					c-0.8-5-2.1-11-4.1-16.5c-3.5-9.6-9.3-17.8-18.6-17.8c5.5,0,9.8-2.9,13.1-7.2C474.7,163.8,476.3,160.8,477.6,157.5z"/>
				<path class="st11" d="M478.3,191.5l-0.7,0.3c-0.2,1.2-0.4,2.2-0.7,3.5c-3.9,17.2-17,28.8-29.2,26.1c-12.2-2.8-18.9-19-15-36.1
					c3.9-17.2,17-28.8,29.2-26c4.2,1,8.1,3.7,10.8,7.3c-3.3,4.3-7.6,7.2-13.1,7.2C469,173.6,474.8,181.9,478.3,191.5z"/>
				<path class="st26" d="M453.2,231.2l0,0.6l-7.9,33.3l-12.6-1.1c-0.1,0-0.3,0-0.5,0c-0.9,0-1.8,0.2-2.5,0.7l-0.1-0.1
					c8.6-4.6,14.5-7.6,12-12.9c-0.9-1.8-3.8-2.3-7.6-2.1v0l5-21.2l0.1-0.1c2,1,4.1,1.8,6.3,2.3C448,231.2,450.6,231.4,453.2,231.2z"
					/>
				<path class="st32" d="M444.6,276.9l-13.3-2.6c-0.2,0-0.5-0.1-0.7-0.2c-2.3-0.8-3.8-3.1-3.4-5.6c0.2-1.6,1.2-3,2.6-3.8
					c0.8-0.4,1.6-0.7,2.5-0.7c0.2,0,0.3,0,0.5,0l12.6,1.1l1,0.1c3,0.2,5.1,3,4.7,5.9l-0.2,1.5C450.4,275.5,447.6,277.4,444.6,276.9
					L444.6,276.9z"/>
				<path class="st32" d="M442.2,288.4c-0.3,0-0.7-0.1-1.1-0.2l-12.5-3.7l-0.6-0.2c-2.6-0.8-4.2-3.5-3.6-6.2c0.6-2.4,2.7-4,5-4
					c0.3,0,0.6,0,0.9,0.1l0.1-0.2c0.2,0.1,0.5,0.2,0.7,0.2l13.3,2.6c2.5,0.8,4.1,3.5,3.4,6.2l-0.4,1.4
					C447,287,444.7,288.6,442.2,288.4L442.2,288.4z"/>
				<path class="st32" d="M442.2,288.4c2.6,1,4,3.9,3,6.5l-0.5,1.4c-1,2.8-4.1,4.2-6.9,3.1l-1-0.4v0l-11.6-4.7
					c-0.6-0.2-1.1-0.6-1.6-1c-1.5-1.4-2.1-3.5-1.4-5.5c0.8-2.1,2.8-3.5,4.9-3.5c0.5,0,1,0.1,1.4,0.2l0,0l12.5,3.7
					C441.5,288.3,441.9,288.4,442.2,288.4L442.2,288.4z"/>
				<path class="st35" d="M429.7,264.5L429.7,264.5c-1.3,0.9-2.3,2.2-2.5,3.9c-0.4,2.5,1.1,4.8,3.4,5.6l-0.1,0.2
					c-0.3-0.1-0.6-0.1-0.9-0.1c-2.4,0-4.5,1.6-5,4c-0.7,2.7,0.9,5.4,3.6,6.2l0.6,0.2l0,0c-0.5-0.1-1-0.2-1.4-0.2
					c-2.2,0-4.2,1.4-4.9,3.5c-0.7,2-0.1,4.1,1.4,5.5l-1.2,5.2l-0.3-0.1c-2.2-0.2-4-0.7-5.3-1.2c-2.2-0.8-4.6-0.4-6.4,1.1
					c-10.5,8.4-26.5,6.9-26.5,6.9c1.5-35.4-19.8-48.9-19.8-48.9c3.9-2.4,7.5-4.9,10.9-7.6c0,0,0,0,0,0c0.5-0.1,14.2-1.3,27.5,2.5
					c6.3,1.9,13,2.1,19.4,0.5c4-1,8.5-2,12.2-2.2c3.7-0.2,6.7,0.2,7.6,2.1C444.2,257,438.3,260,429.7,264.5z"/>
				<path class="st26" d="M436.9,299L436.9,299l-2,9.4c-0.9,3.9-4.8,6.3-8.7,5.4c-3.3-0.8-5.6-3.8-5.6-7c0-0.6,0.1-1.1,0.2-1.7
					l1.6-6.6l1.2-5.2c0.4,0.4,1,0.8,1.6,1L436.9,299z"/>
				<path class="st32" d="M324.1,76.9c3.4-2,7.5-3.3,12.5-3.6c24.5-1.5,28.4,4.3,45,4.3s43.4-5.2,50,6.1c1.6,2.8,1.9,7.8,0.7,13.7
					c-3.9-17.1-37.9,4.1-53.7-1.8c-15.8-5.9-26.8-4.3-34.3,1.5c-7.6,5.9-4.5,21.2-4.5,21.2c-7.7-5.2-18.4-11.7-30.4-16.8
					C309.1,101.6,310.9,84.6,324.1,76.9z"/>
				<path class="st25" d="M378.5,95.6c15.8,5.9,49.8-15.3,53.7,1.8c-3.6,17.6-20.4,43.3-53.7,45.2c-9-7.7-18.2-12-23.1-14
					c-2.5-1-4.8-2.4-7-4c-2.1-1.6-5.1-3.8-8.8-6.3c0,0-3.1-15.4,4.5-21.2C351.7,91.3,362.6,89.8,378.5,95.6z"/>
				<path class="st32" d="M359,166.4c-2.6-1.1-5.6-1.9-9.1-2.2c0,0-4.8,0-12.2,1.1c-1.6,0.2-3.3,0.5-5.1,0.9
					c-5.8,1.2-12.7,3-19.9,5.8c10.2-4.4,13-12,11.4-23.8c-1.3-10.2-11.6-9.5-17.9-8.2c-3.3,0.7-6.8,1-10.2,0.7
					c-8.1-0.6-22.5,0.4-22.5,15.9c0,7.5,3.7,12,8.5,14.6c-0.5-0.1-8.8-1.8-19.8-2.8c-2.5-0.2-5.1-0.4-7.8-0.5
					c-12.2-0.5-26,0.3-35.9,5c-1.8,0.9-3.5,1.9-5.1,3c-12,9-16.3,23.7-15,37.1c0.8,9,4.2,17.3,9.3,22.9c1.8,2,4.2,4.1,7.1,6.1
					c9,6.5,22.9,13,39.4,16.8c3.4,0.8,6.9,1.4,10.5,2c12.6,1.8,26.5,2,40.8-0.6c0.2,0,0.5-0.1,0.7-0.1c4.1-0.8,8-1.8,11.6-3
					c10.9-3.6,20.1-8.8,27.6-14.4c2.5-1.8,4.8-3.7,6.9-5.6c2.4-2.1,4.5-4.2,6.4-6.2c3-3.2,5.7-6.7,7.9-10.5
					c5.4-9.4,7.9-20.3,6.7-31.2C372.4,179.9,368.7,170.7,359,166.4z M364,256.3c0,0,21.3,13.6,19.8,48.9
					c-0.8,18.3-12.7,35.5-34.3,46c-14.6,7.1-33.7,11.1-56.8,10.3l-1.5,0.5c8.1,5.8,12.7,11.6,14.4,14.3c3.9,6.2,7.4,10,9.9,12.3
					c0.2,0.2,0.4,0.3,0.6,0.5c2,1.7,4.6,2.4,7.2,2c30.2-4.4,34.9,12.8,13.1,42.5c-22.6,30.8-44.7,16.1-63.9,7.4
					c-19.1-8.7-68.6-7.4-99.5-37.8c-5.2-5.1-9.5-10.6-13-16.1c-17.3-27.2-16.1-56.1-16.1-56.1c-12.1-11.2-9.9-25.7-9.9-25.7
					c-3-0.8-5.8-1.9-8.6-3.2c-5.1-2.4-15.2-5.8-27.8-3.5c-18.2,3.4-11.1-7.7-13.8-10.3c-2.7-2.6-20.4-3.6-20.4-10.9
					c0-2.7,1.9-4.4,4.4-5.4l-0.1-0.3c0,0-0.5-6.9,4.8-8.5c0.9-0.2,1.8-0.4,2.8-0.5l-0.2-1.4c0,0,1.1-5.9,6.6-6.4
					c3-0.3,7.2-0.3,10.5-0.2c3,0.1,5.9-0.7,8.4-2.2c20.7-12.4,40.9-11.5,40.9-11.5c-3.3-2.8-6.5-6.3-9.4-10.5
					c-17.4-25.2,7.8-57.8,7.8-57.8l0.1-0.4c5.1,1.5,10.9,1.2,16.8-0.1c0,0,0.1,0,0.1,0c1-0.2,1.7-0.4,1.7-0.4
					c15-4,30.1-14.7,35.6-21.7c4.9-6.3,5.2-13-4.4-13.5c-7.5-0.3-8.3-6.1-4.5-9.2c2.1-1.8,3.4-4.3,3.4-7c0-4.4,1.7-10.3,10.7-11.4
					c0.6,3.6,4.9,5.2,7.8,3c2-1.5,4.4-3.2,7-4.9c0,0,20.4-14.3,58.6-13.9c12.3,0.1,24.8,3.7,36.1,8.5c12.1,5.1,22.8,11.6,30.4,16.8
					c3.7,2.5,6.7,4.7,8.8,6.3c2.1,1.6,4.5,3,7,4c4.9,2,14.1,6.3,23.1,14c13.1,11.1,25.8,29.1,24.5,56.8c-0.9,19.1-11.3,36-28,49.3
					c0,0,0,0,0,0C371.6,251.4,367.9,253.9,364,256.3z M330.8,147.8c7.4-1,12.7-6.7,11.9-12.8c-0.8-6.1-7.5-10.2-14.9-9.2
					c-7.4,1-12.7,6.7-11.9,12.8c0,0.1,8.4,3.1,9.2,9C326.9,147.9,328.8,148,330.8,147.8z M305,135.6c4-0.5,6.6-5.5,5.8-11
					c-0.7-5.6-4.6-9.6-8.5-9.1c-4,0.5-6.6,5.5-5.8,11C297.3,132.1,301.1,136.2,305,135.6z M281.2,126.1c0-5.9-3.4-10.7-7.7-10.7
					c-4.2,0-7.6,4.8-7.6,10.7c0,5.9,3.4,10.7,7.6,10.7C277.7,136.8,281.2,132,281.2,126.1z M263.3,145.1c0-6.7-6.6-12.1-14.7-12.1
					s-14.7,5.4-14.7,12.1c0,6.7,6.6,12.1,14.7,12.1S263.3,151.8,263.3,145.1z"/>
				<path class="st25" d="M373.4,189.3c1.2,11-1.3,21.8-6.7,31.2c-4.2-0.7-8.4,0.4-11.4,3.4c-3.4,3.4-4.4,8.5-2.9,13.2l0,0.1
					c-2.1,1.9-4.4,3.8-6.9,5.6c-4.7-2.9-11.2-3.3-17.1-0.5c-0.7,0.3-1.4,0.7-2,1.1c-28-37.8-67.3-30-67.3-30
					c-28.1-14-57.9-1.5-60.7-0.2c-1.2-13.4,3-28.1,15-37.1c1.5-1.1,3.2-2.1,5.1-3c3.1,5.3,9.6,8.9,17.1,8.9
					c9.7,0,17.6-6.1,18.8-13.9c2.7,0.1,5.3,0.3,7.8,0.5c0.5,8.2,8.3,14.9,18.2,15.4c7.9,0.4,14.9-3.4,18-9v0c2.2,0,3.9-0.1,4.7-0.1
					c2.8,4.7,9.2,7.6,15.9,6.8c8.5-1.1,14.6-8.2,13.7-15.3c1.8-0.4,3.5-0.7,5.1-0.9c2.2,4.6,6.2,7.2,11,7.2c4.2,0,8-2.4,10.3-6.1
					C368.7,170.7,372.4,179.9,373.4,189.3z"/>
				<path class="st11" d="M355.3,223.8c3-3,7.2-4.1,11.4-3.4c-2.2,3.8-4.8,7.3-7.9,10.5c-1.9,2-4,4.1-6.4,6.2l0-0.1
					C350.9,232.4,351.9,227.3,355.3,223.8z"/>
				<path class="st11" d="M359,166.4c-2.4,3.7-6.1,6.1-10.3,6.1c-4.8,0-8.7-2.6-11-7.2c7.4-1.1,12.2-1.1,12.2-1.1
					C353.5,164.5,356.5,165.3,359,166.4z"/>
				<path class="st35" d="M349.6,351.2l0.4,0.9c0,0-5.3,27.6-34.4,36.5c-2.6-2.3-6.1-6.1-9.9-12.3c-1.7-2.7-6.3-8.5-14.4-14.3
					l1.5-0.5C315.9,362.3,335,358.3,349.6,351.2z"/>
				<path class="st25" d="M342.7,135c0.8,6.1-4.5,11.8-11.9,12.8c-2,0.3-3.9,0.2-5.6-0.2c-0.9-5.9-9.2-8.8-9.2-9
					c-0.8-6.1,4.5-11.8,11.9-12.8C335.3,124.8,341.9,128.9,342.7,135z"/>
				<path class="st11" d="M345.6,242.7c-7.5,5.6-16.7,10.9-27.6,14.4c0.2-5.3,3.3-10.6,8.5-13.8c0.6-0.4,1.3-0.8,2-1.1
					C334.3,239.4,340.8,239.8,345.6,242.7z"/>
				<path class="st11" d="M332.7,166.2c1,7.1-5.2,14.2-13.7,15.3c-6.7,0.9-13.1-2.1-15.9-6.8c0.4,0,0.6-0.1,0.6-0.1
					c3.5-0.7,6.4-1.5,9-2.6c0,0,0,0,0.1,0C320,169.2,326.8,167.4,332.7,166.2z"/>
				<path class="st35" d="M324.1,148.2c1.6,11.8-1.2,19.5-11.4,23.8c0,0,0,0-0.1,0c-2.5,1.1-5.5,1.9-9,2.6c0,0-0.2,0-0.6,0.1
					c-0.8,0.1-2.5,0.2-4.7,0.1c-4.5-0.1-11.1-0.7-16.4-3.6c0,0,0,0,0,0c-4.8-2.6-8.5-7.1-8.5-14.6c0-15.5,14.5-16.6,22.5-15.9
					c3.4,0.3,6.8,0.1,10.2-0.7C312.5,138.7,322.8,138,324.1,148.2z M312.7,156c0-3.9-1.6-7.1-3.5-7.1c-2,0-3.5,3.2-3.5,7.1
					c0,3.9,1.6,7.1,3.5,7.1C311.1,163.1,312.7,159.9,312.7,156z M299,157.1c0-3.9-1.6-7.1-3.5-7.1c-2,0-3.5,3.2-3.5,7.1
					s1.6,7.1,3.5,7.1C297.4,164.2,299,161,299,157.1z"/>
				<path class="st31" d="M259.1,213.4c0,0,39.3-7.8,67.3,30c-5.1,3.2-8.2,8.5-8.5,13.8c-3.7,1.2-7.6,2.2-11.6,3l-0.1-0.4
					c-4.2-5-11.7-8.4-20.3-8.4c-9.2,0-17.1,3.8-21.1,9.5c-3.6-0.5-7.1-1.2-10.5-2c-0.8-7.6-7.8-15.2-17.8-18.4
					c-8-2.6-16.1-1.8-21.6,1.6c-2.9-2.1-5.3-4.1-7.1-6.1c-5.2-5.6-8.5-13.9-9.3-22.9C201.2,211.9,231,199.4,259.1,213.4z"/>
				<path class="st1" d="M309.1,148.9c1.9,0,3.5,3.2,3.5,7.1c0,3.9-1.6,7.1-3.5,7.1c-2,0-3.5-3.2-3.5-7.1
					C305.6,152.1,307.2,148.9,309.1,148.9z"/>
				<path class="st1" d="M310.9,124.6c0.7,5.6-1.9,10.5-5.8,11c-4,0.5-7.8-3.5-8.5-9.1c-0.7-5.5,1.9-10.5,5.8-11
					C306.3,115,310.1,119.1,310.9,124.6z"/>
				<path class="st11" d="M306.2,259.8l0.1,0.4c-0.2,0-0.5,0.1-0.7,0.1c-14.3,2.6-28.1,2.4-40.8,0.6c4-5.6,11.9-9.5,21.1-9.5
					C294.5,251.4,302,254.7,306.2,259.8z"/>
				<path class="st11" d="M298.4,174.9L298.4,174.9c-3.1,5.7-10.1,9.4-18,9c-9.9-0.5-17.7-7.2-18.2-15.4c11,1,19.3,2.7,19.8,2.8
					c0,0,0,0,0,0C287.3,174.2,293.9,174.8,298.4,174.9z"/>
				<path class="st1" d="M295.5,150c1.9,0,3.5,3.2,3.5,7.1s-1.6,7.1-3.5,7.1c-2,0-3.5-3.2-3.5-7.1S293.6,150,295.5,150z"/>
				<path class="st1" d="M273.5,115.4c4.2,0,7.7,4.8,7.7,10.7c0,5.9-3.4,10.7-7.7,10.7c-4.2,0-7.6-4.8-7.6-10.7
					C265.9,120.2,269.3,115.4,273.5,115.4z"/>
				<path class="st25" d="M248.6,133c8.1,0,14.7,5.4,14.7,12.1c0,6.7-6.6,12.1-14.7,12.1s-14.7-5.4-14.7-12.1
					C233.9,138.5,240.5,133,248.6,133z"/>
				<path class="st11" d="M218.5,173c9.9-4.7,23.7-5.5,35.9-5c-1.2,7.9-9.2,13.9-18.8,13.9C228.1,181.9,221.7,178.3,218.5,173z"/>
				<path class="st11" d="M236.5,240.5c10,3.2,17,10.8,17.8,18.4c-16.6-3.8-30.4-10.3-39.4-16.8
					C220.4,238.8,228.5,237.9,236.5,240.5z"/>
				<path class="st32" d="M193.2,67c27.4,5.2,21.3,40,21.3,40c-2.6,1.7-4.9,3.4-7,4.9c-2.9,2.2-7.2,0.6-7.8-3
					c-1.3-7.6-5.5-17.1-18.7-15.4c-14.8,2-11.3,19.1-22.6,31.9c-11.3,12.8-24.1,27.3-18.2,38c5.2,9.5,13.4,9.3,16.9,8.7
					c-5.9,1.3-11.7,1.6-16.8,0.1c-4-1.2-7.6-3.4-10.5-7c-18.9-23.3,10.4-51.7,19.1-71.2C157.5,74.4,165.8,61.8,193.2,67z"/>
				<path class="st25" d="M190.1,136.5c9.6,0.4,9.3,7.2,4.4,13.5c-5.5,7-20.6,17.7-35.6,21.7c-0.6,0.1-1.1,0.3-1.7,0.4
					c0,0-0.1,0-0.1,0c-3.6,0.6-11.7,0.9-16.9-8.7c-5.9-10.7,6.9-25.2,18.2-38c11.3-12.8,7.8-29.9,22.6-31.9
					c13.2-1.7,17.4,7.7,18.7,15.4c-9,1.2-10.7,7-10.7,11.4c0,2.7-1.3,5.2-3.4,7C181.8,130.4,182.6,136.1,190.1,136.5z"/>
				<path class="st32" d="M158.9,171.6c0,0-0.6,0.2-1.7,0.4C157.8,171.9,158.3,171.8,158.9,171.6z"/>
				<path class="st35" d="M160.2,387c-16.1-14.7-40.9,6.9-40.8-17.1c0.1-29.5,24.8-38.9,24.8-38.9S142.9,359.8,160.2,387z"/>
			</g>
			<g>
				<path class="st34" d="M157.2,172c0.6-0.1,1.1-0.3,1.7-0.4c15-4,30.1-14.7,35.6-21.7c4.9-6.3,5.2-13-4.4-13.5
					c-7.5-0.3-8.3-6.1-4.5-9.2c2.1-1.8,3.4-4.3,3.4-7c0-4.4,1.7-10.3,10.7-11.4"/>
				<path class="st34" d="M375,248.7c16.7-13.2,27.1-30.1,28-49.3c1.3-27.7-11.4-45.7-24.5-56.8c-9-7.7-18.2-12-23.1-14
					c-2.5-1-4.8-2.4-7-4c-2.1-1.6-5.1-3.8-8.8-6.3c-7.7-5.2-18.4-11.7-30.4-16.8c-11.3-4.8-23.8-8.4-36.1-8.5
					c-38.2-0.4-58.6,13.9-58.6,13.9s6.1-34.8-21.3-40c-27.4-5.2-35.6,7.4-44.3,26.9c-8.7,19.5-38,47.9-19.1,71.2
					c2.9,3.6,6.5,5.8,10.5,7c5.1,1.5,10.9,1.2,16.8-0.1"/>
				<path class="st34" d="M234.9,274.6c48.3,9.9,96.8,1.5,129.2-18.3c3.9-2.4,7.5-4.9,10.9-7.6"/>
				<path class="st34" d="M161.1,251.4c9.7,3.1,17.3,2.8,17.3,2.8"/>
				<path class="st34" d="M140.2,172.5c0,0-25.2,32.6-7.8,57.8c2.9,4.2,6.1,7.6,9.4,10.5c6.4,5.5,13.3,8.8,19.4,10.7"/>
				<path class="st36" d="M161.1,251.4c0.2,0.2,7.4,5.5,12.1,9.7"/>
				<path class="st34" d="M161.1,251.4C161.1,251.4,161.1,251.4,161.1,251.4"/>
				<path class="st34" d="M158.9,171.6c0,0-0.6,0.2-1.7,0.4c0,0-0.1,0-0.1,0c-3.6,0.6-11.7,0.9-16.9-8.7c-5.9-10.7,6.9-25.2,18.2-38
					c11.3-12.8,7.8-29.9,22.6-31.9c13.2-1.7,17.4,7.7,18.7,15.4c0.6,3.6,4.9,5.2,7.8,3c2-1.5,4.4-3.2,7-4.9"/>
				<path class="st34" d="M309.1,101.6c0,0,1.8-17,14.9-24.7c3.4-2,7.5-3.3,12.5-3.6c24.5-1.5,28.4,4.3,45,4.3s43.4-5.2,50,6.1
					c1.6,2.8,1.9,7.8,0.7,13.7c-3.6,17.6-20.4,43.3-53.7,45.2"/>
				<path class="st34" d="M339.6,118.4c0,0-3.1-15.4,4.5-21.2c7.6-5.9,18.5-7.4,34.3-1.5c15.8,5.9,49.8-15.3,53.7,1.8"/>
				<path class="st34" d="M373,113.4c0,0,2.7,12.6-19.3,13.9"/>
				<path class="st37" d="M228.1,84.3c0,0,11.7-16.9,32.6-18.6"/>
				<path class="st37" d="M331.1,84.3c0,0-2.4-3.5-7-7.5c-5.5-4.8-14.2-10.2-25.6-11.1"/>
				<path class="st34" d="M171.4,298.1c-0.9,0-7.8,12.8-32.8,8.2c-1.5-0.3-3-0.6-4.5-1c-3-0.8-5.8-1.9-8.6-3.2
					c-5.1-2.4-15.2-5.8-27.8-3.5c-18.2,3.4-11.1-7.7-13.8-10.3c-2.7-2.6-20.4-3.6-20.4-10.9c0-2.7,1.9-4.4,4.4-5.4
					c5.8-2.3,15.1-1.2,15.1-1.2"/>
				<path class="st34" d="M67.8,271.6c0,0-0.5-6.9,4.8-8.5c0.9-0.2,1.8-0.4,2.8-0.5c4.9-0.6,10.4,0.2,10.4,0.2"/>
				<path class="st34" d="M75.2,261.2c0,0,1.1-5.9,6.6-6.4c3-0.3,7.2-0.3,10.5-0.2c3,0.1,5.9-0.7,8.4-2.2
					c20.7-12.4,40.9-11.5,40.9-11.5"/>
				<path class="st34" d="M134.1,305.2c0,0-2.1,14.5,9.9,25.7c14.6,13.6,16.3,17.6,16.3,17.6"/>
				<path class="st34" d="M364,256.3c0,0,21.3,13.6,19.8,48.9c-0.8,18.3-12.7,35.5-34.3,46c-14.6,7.1-33.7,11.1-56.8,10.3"/>
				<path class="st34" d="M196.6,348.6c3.6,1.1,7.5,1.2,11.2,0.4c42.1-8.3,68.6,2.3,83.4,13c8.1,5.8,12.7,11.6,14.4,14.3
					c3.9,6.2,7.4,10,9.9,12.3c0.2,0.2,0.4,0.3,0.6,0.5c2,1.7,4.6,2.4,7.2,2c30.2-4.4,34.9,12.8,13.1,42.5
					c-22.6,30.8-44.7,16.1-63.9,7.4c-19.1-8.7-68.6-7.4-99.5-37.8c-5.2-5.1-9.5-10.6-13-16.1c-17.3-27.2-16.1-56.1-16.1-56.1
					s-24.7,9.5-24.8,38.9c-0.1,24,24.8,2.5,40.8,17.1"/>
				<path class="st34" d="M319.2,342.2c0,0,3.5-2.9,7.4-0.6"/>
				<path class="st34" d="M310.7,422.7c0,0,4.4,1,4.9,5.5"/>
				<path class="st34" d="M322,409.5c0,0,5.2,1.2,5.8,6.5"/>
				<path class="st34" d="M332.8,399.3c0,0,5.2,1.2,5.8,6.5"/>
				<path class="st34" d="M350,352.1c0,0-5.3,27.6-34.4,36.5"/>
				<path class="st34" d="M375,248.7C375,248.7,375,248.7,375,248.7c0.5-0.1,14.2-1.3,27.5,2.5c6.3,1.9,13,2.1,19.4,0.5
					c4-1,8.5-2,12.2-2.2c3.7-0.2,6.7,0.2,7.6,2.1c2.6,5.3-3.3,8.3-12,12.9c-0.5,0.2-1,0.5-1.5,0.8c-1.9,1-2.8,4-3.8,5.8
					c-1.1,1.9-4.1,5.4-6.8,6.3"/>
				<path class="st38" d="M519.2,105.5c0,0-0.9,21.8-11.4,21.8"/>
				<path class="st38" d="M519.2,105.5c0,0,0.9,21.8,11.4,21.8"/>
				<path class="st38" d="M519.2,149.2c0,0-0.9-21.8-11.4-21.8"/>
				<path class="st38" d="M519.2,149.2c0,0,0.9-21.8,11.4-21.8"/>
				<path class="st34" d="M383.9,305.2c0,0,16,1.5,26.5-6.9c1.8-1.5,4.3-1.9,6.4-1.1c1.4,0.5,3.1,1,5.3,1.2"/>
				<line class="st34" x1="434.1" y1="249.6" x2="439.1" y2="228.4"/>
				<path class="st34" d="M436.9,299l-2,9.4c-0.9,3.9-4.8,6.3-8.7,5.4c-3.3-0.8-5.6-3.8-5.6-7c0-0.6,0.1-1.1,0.2-1.7l1.6-6.6
					l1.2-5.2"/>
				<line class="st34" x1="453.2" y1="231.8" x2="445.3" y2="265.1"/>
				<path class="st34" d="M482.5,208L482.5,208c-6.3,13.3-17.5,22.3-29.3,23.2c-2.6,0.2-5.1,0-7.7-0.6c-2.2-0.5-4.3-1.3-6.3-2.3
					c-13.4-7.1-20.3-25.9-15.9-45.4c5.1-22.4,23.3-37.4,40.7-33.4c5.3,1.2,9.9,4.1,13.6,8.1l0,0"/>
				<path class="st34" d="M477.6,191.7c-0.2,1.2-0.4,2.2-0.7,3.5c-3.9,17.2-17,28.8-29.2,26.1c-12.2-2.8-18.9-19-15-36.1
					c3.9-17.2,17-28.8,29.2-26c4.2,1,8.1,3.7,10.8,7.3"/>
				<path class="st34" d="M445.3,265.1l1,0.1c3,0.2,5.1,3,4.7,5.9l-0.2,1.5c-0.4,2.9-3.2,4.9-6.1,4.3l-0.1,0l-13.3-2.6
					c-0.2,0-0.5-0.1-0.7-0.2c-2.3-0.8-3.8-3.1-3.4-5.6c0.2-1.6,1.2-3,2.6-3.8c0.8-0.4,1.6-0.7,2.5-0.7c0.2,0,0.3,0,0.5,0
					L445.3,265.1z"/>
				<path class="st34" d="M442.2,288.4c-0.3,0-0.7-0.1-1.1-0.2l-12.5-3.7l-0.6-0.2c-2.6-0.8-4.2-3.5-3.6-6.2c0.6-2.4,2.7-4,5-4
					c0.3,0,0.6,0,0.9,0.1"/>
				<path class="st34" d="M443.9,276.7c0.2,0,0.5,0.1,0.7,0.2c2.5,0.8,4.1,3.5,3.4,6.2l-0.4,1.4c-0.6,2.5-3,4.1-5.4,4"/>
				<path class="st34" d="M441.8,288.2c0.1,0,0.3,0.1,0.4,0.1l0,0c2.6,1,4,3.9,3,6.5l-0.5,1.4c-1,2.8-4.1,4.2-6.9,3.1l-1-0.4v0
					l-11.6-4.7c-0.6-0.2-1.1-0.6-1.6-1c-1.5-1.4-2.1-3.5-1.4-5.5c0.8-2.1,2.8-3.5,4.9-3.5c0.5,0,1,0.1,1.4,0.2"/>
				<path class="st34" d="M282,171.3c-4.8-2.6-8.5-7.1-8.5-14.6c0-15.5,14.5-16.6,22.5-15.9c3.4,0.3,6.8,0.1,10.2-0.7
					c6.3-1.4,16.6-2,17.9,8.2c1.6,11.8-1.2,19.5-11.4,23.8"/>
				<path class="st34" d="M312.7,172.1c-2.5,1.1-5.5,1.9-9,2.6c0,0-0.2,0-0.6,0.1c-0.8,0.1-2.5,0.2-4.7,0.1
					c-4.5-0.1-11.1-0.7-16.4-3.6"/>
				<path class="st34" d="M282,171.3C282,171.3,282,171.3,282,171.3c-0.5-0.1-8.8-1.8-19.8-2.8c-2.5-0.2-5.1-0.4-7.8-0.5
					c-12.2-0.5-26,0.3-35.9,5c-1.8,0.9-3.5,1.9-5.1,3c-12,9-16.3,23.7-15,37.1c0.8,9,4.2,17.3,9.3,22.9c1.8,2,4.2,4.1,7.1,6.1
					c9,6.5,22.9,13,39.4,16.8c3.4,0.8,6.9,1.4,10.5,2c12.6,1.8,26.5,2,40.8-0.6c0.2,0,0.5-0.1,0.7-0.1c4.1-0.8,8-1.8,11.6-3
					c10.9-3.6,20.1-8.8,27.6-14.4c2.5-1.8,4.8-3.7,6.9-5.6c2.4-2.1,4.5-4.2,6.4-6.2c3-3.2,5.7-6.7,7.9-10.5
					c5.4-9.4,7.9-20.3,6.7-31.2c-1-9.3-4.7-18.6-14.4-22.8c-2.6-1.1-5.6-1.9-9.1-2.2c0,0-4.8,0-12.2,1.1c-1.6,0.2-3.3,0.5-5.1,0.9
					c-5.8,1.2-12.7,3-19.9,5.8c0,0,0,0-0.1,0"/>
				<path class="st34" d="M254.4,168L254.4,168c-1.2,7.9-9.2,13.9-18.8,13.9c-7.5,0-13.9-3.6-17.1-8.9"/>
				<path class="st34" d="M298.4,174.9c-3.1,5.6-10.1,9.4-18,9c-9.9-0.5-17.7-7.2-18.2-15.4"/>
				<path class="st34" d="M332.7,166.2c1,7.1-5.2,14.2-13.7,15.3c-6.7,0.9-13.1-2.1-15.9-6.8"/>
				<path class="st34" d="M359,166.4L359,166.4c-2.4,3.7-6.1,6.1-10.3,6.1c-4.8,0-8.7-2.6-11-7.2"/>
				<path class="st34" d="M214.9,242.1c5.5-3.4,13.6-4.2,21.6-1.6c10,3.2,17,10.8,17.8,18.4"/>
				<path class="st34" d="M264.9,260.9c4-5.6,11.9-9.5,21.1-9.5c8.6,0,16.1,3.3,20.3,8.4"/>
				<path class="st34" d="M318,257.2C318,257.2,318,257.2,318,257.2c0.2-5.4,3.3-10.7,8.5-13.9c0.6-0.4,1.3-0.8,2-1.1
					c5.9-2.8,12.4-2.4,17.1,0.5"/>
				<path class="st34" d="M352.4,237.1c-1.5-4.7-0.5-9.8,2.9-13.2c3-3,7.2-4.1,11.4-3.4"/>
				<path class="st34" d="M198.2,213.2c0,0,0.1,0,0.2-0.1c2.8-1.2,32.6-13.7,60.7,0.2c7.4,3.7,14.6,9.1,21.2,17.1"/>
				<path class="st34" d="M259.1,213.4c0,0,39.3-7.8,67.3,30"/>
				<path class="st38" d="M482.4,208c1.1,6.8,1.3,11.9,1.3,11.9s2-46.3,24.1-46.3c-22.2,0-24.1-46.3-24.1-46.3s-0.7,16.8-6.1,30.2
					c-1.3,3.2-2.9,6.3-4.9,8.8c-3.3,4.3-7.6,7.2-13.1,7.2c9.4,0,15.1,8.3,18.6,17.8C480.4,197,481.6,202.9,482.4,208z"/>
			</g>
		</g>
	</g>
</g>
<g id="NOTES">
</g>
</svg>
