<svg width="24" height="24" viewBox="0 0 24 24" fill="none" xmlns="http://www.w3.org/2000/svg">
<path d="M16.875 20.25H7.125C5.0625 20.25 3.375 18.5625 3.375 16.5V6.75C3.375 4.6875 5.0625 3 7.125 3H16.875C18.9375 3 20.625 4.6875 20.625 6.75V16.5C20.625 18.5625 18.9375 20.25 16.875 20.25Z" fill="url(#paint0_radial)"/>
<path d="M12 6.375C13.725 6.375 13.9125 6.375 14.5875 6.4125C15.225 6.45 15.5625 6.5625 15.7875 6.6375C16.0875 6.75 16.3125 6.9 16.5375 7.125C16.7625 7.35 16.9125 7.575 17.025 7.875C17.1 8.1 17.2125 8.4375 17.25 9.075C17.25 9.7125 17.25 9.9 17.25 11.625C17.25 13.35 17.25 13.5375 17.2125 14.2125C17.175 14.85 17.0625 15.1875 16.9875 15.4125C16.875 15.7125 16.725 15.9375 16.5 16.1625C16.275 16.3875 16.05 16.5375 15.75 16.65C15.525 16.725 15.1875 16.8375 14.55 16.875C13.9125 16.875 13.725 16.875 12 16.875C10.275 16.875 10.0875 16.875 9.4125 16.8375C8.775 16.8 8.4375 16.6875 8.2125 16.6125C7.9125 16.5 7.6875 16.35 7.4625 16.125C7.2375 15.9 7.0875 15.675 6.975 15.375C6.9 15.15 6.7875 14.8125 6.75 14.175C6.75 13.5375 6.75 13.35 6.75 11.625C6.75 9.9 6.75 9.7125 6.7875 9.0375C6.825 8.4 6.9375 8.0625 7.0125 7.8375C7.125 7.5375 7.275 7.3125 7.5 7.0875C7.725 6.8625 7.95 6.7125 8.25 6.6C8.475 6.525 8.8125 6.4125 9.45 6.375C10.0875 6.375 10.275 6.375 12 6.375ZM12 5.25C10.275 5.25 10.05 5.25 9.375 5.2875C8.7 5.325 8.25 5.4375 7.8375 5.5875C7.425 5.7375 7.05 5.9625 6.7125 6.3375C6.375 6.7125 6.15 7.05 5.9625 7.4625C5.8125 7.875 5.7 8.325 5.6625 9C5.625 9.675 5.625 9.9 5.625 11.625C5.625 13.35 5.625 13.575 5.6625 14.25C5.7 14.925 5.8125 15.375 5.9625 15.7875C6.1125 16.2 6.3375 16.575 6.7125 16.9125C7.05 17.25 7.425 17.475 7.8375 17.6625C8.25 17.8125 8.7 17.925 9.375 17.9625C10.05 18 10.275 18 12 18C13.725 18 13.95 18 14.625 17.9625C15.3 17.925 15.75 17.8125 16.1625 17.6625C16.575 17.5125 16.95 17.2875 17.2875 16.9125C17.625 16.575 17.85 16.2 18.0375 15.7875C18.1875 15.375 18.3 14.925 18.3375 14.25C18.375 13.575 18.375 13.35 18.375 11.625C18.375 9.9 18.375 9.675 18.3375 9C18.3 8.325 18.1875 7.875 18.0375 7.4625C17.8875 7.05 17.6625 6.675 17.2875 6.3375C16.9125 6 16.575 5.775 16.1625 5.5875C15.75 5.4375 15.3 5.325 14.625 5.2875C13.95 5.25 13.725 5.25 12 5.25Z" fill="white"/>
<path d="M12 8.25C10.125 8.25 8.625 9.75 8.625 11.625C8.625 13.5 10.125 15 12 15C13.875 15 15.375 13.5 15.375 11.625C15.375 9.75 13.875 8.25 12 8.25ZM12 13.875C10.7625 13.875 9.75 12.8625 9.75 11.625C9.75 10.3875 10.7625 9.375 12 9.375C13.2375 9.375 14.25 10.3875 14.25 11.625C14.25 12.8625 13.2375 13.875 12 13.875Z" fill="white"/>
<path d="M15.375 9C15.7892 9 16.125 8.66421 16.125 8.25C16.125 7.83579 15.7892 7.5 15.375 7.5C14.9608 7.5 14.625 7.83579 14.625 8.25C14.625 8.66421 14.9608 9 15.375 9Z" fill="white"/>
<defs>
<radialGradient id="paint0_radial" cx="0" cy="0" r="1" gradientUnits="userSpaceOnUse" gradientTransform="translate(6.94085 23.7358) rotate(-49.945) scale(26.1171 17.2525)">
<stop offset="0.073" stop-color="#EACC7B"/>
<stop offset="0.184" stop-color="#ECAA59"/>
<stop offset="0.307" stop-color="#EF802E"/>
<stop offset="0.358" stop-color="#EF6D3A"/>
<stop offset="0.46" stop-color="#F04B50"/>
<stop offset="0.516" stop-color="#F03E58"/>
<stop offset="0.689" stop-color="#DB359E"/>
<stop offset="0.724" stop-color="#CE37A4"/>
<stop offset="0.789" stop-color="#AC3CB4"/>
<stop offset="0.877" stop-color="#7544CF"/>
<stop offset="0.98" stop-color="#2B4FF2"/>
</radialGradient>
</defs>
</svg>
