<svg width="168" height="111" viewBox="0 0 168 111" fill="none" xmlns="http://www.w3.org/2000/svg">
<path d="M10.6161 0.63623H0V52.7785H10.6161V0.63623Z" fill="#F6E2C9"/>
<path d="M104.644 0.63623H94.0281V13.6795H78.7359V0.63623H68.1199V13.6795H61.1373V24.0157H68.1199V55.2088H78.7359V24.0157H94.0281V52.7478H104.644V24.0157H112.195V13.6795H104.644V0.63623Z" fill="#F6E2C9"/>
<path d="M37.8829 13.3408C26.5401 13.3408 17.2827 22.3235 17.2827 33.3979C17.2827 44.4724 26.5085 53.455 37.8829 53.455C49.2572 53.455 58.4831 44.4724 58.4831 33.3979C58.4831 22.3235 49.2256 13.3408 37.8829 13.3408ZM37.8829 43.1189C32.3853 43.1189 27.8987 38.7506 27.8987 33.3979C27.8987 28.0453 32.3853 23.677 37.8829 23.677C43.3805 23.677 47.867 28.0453 47.867 33.3979C47.867 38.7506 43.3805 43.1189 37.8829 43.1189Z" fill="#F6E2C9"/>
<path d="M134.597 13.3408C123.254 13.3408 113.996 22.3235 113.996 33.3979C113.996 44.4724 123.222 53.455 134.597 53.455C145.971 53.455 155.197 44.4724 155.197 33.3979C155.197 22.3235 145.971 13.3408 134.597 13.3408ZM134.597 43.1189C129.099 43.1189 124.612 38.7506 124.612 33.3979C124.612 28.0453 129.099 23.677 134.597 23.677C140.094 23.677 144.581 28.0453 144.581 33.3979C144.581 38.7506 140.094 43.1189 134.597 43.1189Z" fill="#F6E2C9"/>
<path d="M38.705 95.2608C37.2516 95.2608 35.893 95.0147 34.6292 94.5533C31.0905 93.2305 27.773 89.4159 29.1 82.7405C32.2595 66.7748 41.4538 52.5933 41.833 51.9781C42.7176 50.6245 44.2026 49.8247 45.8456 49.8247C46.7618 49.8247 47.6149 50.0708 48.4048 50.5322C50.6165 51.8858 51.28 54.7775 49.8582 56.9308C49.7634 57.0539 41.2326 70.2817 38.4522 84.4632C38.3259 85.1707 38.2943 85.6937 38.3259 85.9706C38.4206 85.9706 38.5154 86.0013 38.6418 86.0013C41.7066 86.0013 48.6576 82.2175 53.9656 74.127C55.261 68.7436 58.6733 63.3909 63.8234 58.6535C67.3305 55.4235 70.806 53.7931 74.1867 53.7931C76.4932 53.7931 78.2309 54.5621 79.242 55.2081C81.4536 56.5924 82.1171 59.4533 80.6953 61.6067C79.8107 62.9603 78.3257 63.7601 76.6827 63.7601C75.7665 63.7601 74.8818 63.514 74.1235 63.0218C73.6812 63.0525 72.3226 63.5447 70.332 65.3905C64.9608 70.3125 62.3384 75.6344 62.9387 80.3103C62.9703 80.4948 63.2863 81.0486 64.1393 81.1408C64.2341 81.1408 64.2973 81.1408 64.3921 81.1408C66.5406 81.1408 71.2799 78.1261 75.4821 66.8979C76.1772 65.0829 77.9465 63.8524 79.9371 63.8524C80.5058 63.8524 81.0429 63.9447 81.58 64.1292C84.0445 65.0213 85.3083 67.6669 84.4236 70.0664C77.7886 87.7548 69.005 90.4003 64.3289 90.4003C63.855 90.4003 63.4126 90.3696 63.0335 90.3388C60.2215 90.0312 57.6307 88.6469 55.8297 86.6166C50.3321 92.0307 43.9814 95.2608 38.705 95.2608Z" fill="#F3A591"/>
<path d="M45.8453 51.148C46.4772 51.148 47.1091 51.3018 47.6462 51.671C49.226 52.6554 49.6999 54.6857 48.6889 56.2238C48.5941 56.3469 39.9369 69.79 37.0933 84.2176C36.9354 84.9867 36.6826 86.8017 37.5673 87.1401C37.8516 87.2631 38.1992 87.2939 38.6099 87.2939C42.0222 87.2939 49.4472 83.5101 55.2291 74.589C56.3982 69.4209 59.6525 64.2528 64.7394 59.5462C68.5308 56.07 71.7536 55.0548 74.1864 55.0548C76.2085 55.0548 77.6935 55.7316 78.515 56.2546C80.0948 57.239 80.5687 59.2693 79.5576 60.8074C78.9257 61.7918 77.8199 62.3455 76.6824 62.3455C76.0505 62.3455 75.4186 62.1917 74.8499 61.8226C74.6603 61.6995 74.4392 61.6688 74.1548 61.6688C73.1438 61.6688 71.4376 62.4378 69.3839 64.3451C63.6967 69.5747 60.9479 75.2658 61.5798 80.4031C61.6746 81.2337 62.5593 82.2181 63.9811 82.3719C64.1075 82.3719 64.2654 82.4026 64.3918 82.4026C67.6145 82.4026 72.575 78.4958 76.7772 67.2675C77.2828 65.914 78.5782 65.0834 79.9684 65.0834C80.3475 65.0834 80.7583 65.1449 81.1374 65.2987C82.9067 65.914 83.7914 67.8213 83.1595 69.544C76.7772 86.5556 68.5624 89.0166 64.3602 89.0166C63.9179 89.0166 63.5387 88.9858 63.2228 88.9551C60.1264 88.6167 57.4724 86.8632 56.019 84.4637C50.4898 90.3394 44.0127 93.9078 38.7047 93.9078C37.4409 93.9078 36.2403 93.6925 35.1344 93.2926C33.681 92.7388 28.9733 90.3394 30.4583 82.9564C33.5547 67.2675 42.6226 53.2399 43.0017 52.6554C43.602 51.671 44.7078 51.148 45.8453 51.148ZM45.8453 48.5024C43.7284 48.5024 41.8011 49.5484 40.6952 51.2711C40.2845 51.8863 30.9638 66.3139 27.7727 82.4949C26.2877 89.9702 30.1108 94.277 34.155 95.8151C35.5452 96.338 37.0933 96.6149 38.7047 96.6149C44.0443 96.6149 50.3002 93.6309 55.861 88.4936C57.7884 90.2163 60.2528 91.3545 62.9384 91.6621C63.4124 91.7237 63.9179 91.7544 64.3918 91.7544C69.3839 91.7544 78.8309 88.9858 85.7503 70.5591C86.3191 69.0518 86.2559 67.4521 85.5608 66.0063C84.8657 64.5604 83.6334 63.4838 82.1169 62.93C81.9589 62.8685 81.7693 62.807 81.5797 62.7762C81.6745 62.6532 81.7693 62.4993 81.8641 62.3763C83.665 59.6077 82.8436 55.9162 80 54.1627C78.7993 53.4244 76.8404 52.5323 74.1864 52.5323C70.4265 52.5323 66.6351 54.2858 62.8752 57.7312C57.5988 62.5916 54.0601 68.0981 52.6699 73.6354C48.1833 80.4031 42.7173 83.7562 39.8106 84.5253C42.591 70.7744 50.9006 57.8235 50.9953 57.7004C52.7963 54.9318 51.9432 51.2403 49.0996 49.4868C48.1202 48.8101 46.9827 48.5024 45.8453 48.5024ZM64.2654 79.7878C63.9179 75.6042 66.3823 70.836 71.2796 66.3139C72.575 65.1142 73.5229 64.5912 73.9968 64.4374C74.376 64.622 74.7551 64.745 75.1343 64.8681C74.7551 65.3295 74.4708 65.8525 74.2496 66.4369C70.1106 77.4191 65.7504 79.8186 64.4234 79.8186C64.3918 79.8186 64.3602 79.8186 64.3286 79.8186C64.297 79.7878 64.2654 79.7878 64.2654 79.7878Z" fill="#A51E24"/>
<path d="M84.0121 108.889C81.99 108.889 79.0516 108.458 76.5872 106.397C74.8178 104.921 72.7325 102.091 72.8273 97.0455C72.8905 94.5538 75.0074 92.5235 77.5667 92.5235C78.9253 92.5542 80.1259 93.0464 81.0106 93.9385C81.8952 94.8307 82.3692 95.9996 82.3376 97.2301C82.306 98.5837 82.5903 99.1989 82.7483 99.3527C82.9063 99.4758 83.3486 99.6296 84.0121 99.6296C84.1701 99.6296 84.2965 99.6296 84.3913 99.5988C88.0563 99.1066 92.922 93.3541 97.5982 84.0946C96.9031 84.2176 96.208 84.2791 95.5445 84.2791C95.0705 84.2791 94.6282 84.2484 94.249 84.2176C89.2886 83.6639 85.2759 79.9109 84.6756 75.3273C83.7278 67.6367 87.3928 59.5462 94.9757 52.5631C98.4828 49.333 101.958 47.7026 105.371 47.7026C107.677 47.7026 109.415 48.4717 110.426 49.1177C111.5 49.7945 112.227 50.8096 112.511 52.0094C112.796 53.2091 112.574 54.4704 111.879 55.4855C110.995 56.8391 109.51 57.6389 107.867 57.6389C106.95 57.6389 106.066 57.3928 105.307 56.9006C104.865 56.9314 103.507 57.4236 101.516 59.2693C96.1448 64.1913 93.5223 69.5132 94.1227 74.1891C94.1543 74.3737 94.4702 74.9274 95.3233 75.0197C95.4181 75.0197 95.4813 75.0197 95.5761 75.0197C97.7245 75.0197 102.464 72.0049 106.666 60.7767L106.698 60.6844L106.792 60.4998C106.856 60.3768 106.919 60.2229 107.014 60.0691C107.077 59.9461 107.172 59.823 107.266 59.7C107.361 59.5769 107.456 59.4539 107.551 59.3308C107.646 59.2078 107.74 59.1155 107.835 59.0232C107.961 58.9002 108.088 58.8079 108.214 58.7156C108.309 58.6233 108.435 58.5618 108.562 58.4695C108.688 58.3772 108.846 58.3157 108.973 58.2234C109.099 58.1619 109.225 58.1003 109.352 58.0696C109.51 58.008 109.668 57.9465 109.826 57.9158C109.952 57.885 110.078 57.8542 110.236 57.8235C110.394 57.7927 110.584 57.7619 110.742 57.7619C110.868 57.7619 110.995 57.7619 111.121 57.7619C111.342 57.7619 111.5 57.7619 111.658 57.7927C111.816 57.8235 111.974 57.8542 112.132 57.885C112.227 57.885 112.322 57.9158 112.416 57.9465L112.511 57.9773L112.796 58.0696C112.89 58.1003 112.985 58.1311 113.08 58.1926C113.206 58.2541 113.364 58.3157 113.491 58.408C113.617 58.4695 113.743 58.5618 113.87 58.6541C113.996 58.7463 114.123 58.8386 114.249 58.9309C114.375 59.0232 114.47 59.1463 114.565 59.2385C114.66 59.3308 114.786 59.4539 114.881 59.5769C114.976 59.7 115.07 59.823 115.134 59.9461C115.228 60.0691 115.292 60.1922 115.355 60.346C115.418 60.469 115.481 60.6228 115.544 60.7459C115.608 60.8997 115.671 61.0228 115.702 61.1766C115.734 61.3304 115.766 61.4534 115.797 61.6072C115.829 61.7611 115.86 61.9149 115.86 62.0687C115.86 62.1917 115.892 62.3455 115.892 62.4994C115.892 62.6532 115.892 62.807 115.86 62.9608C115.829 63.1146 115.829 63.2684 115.766 63.4222C115.766 63.5145 115.734 63.6068 115.702 63.6991C115.102 65.7602 111.942 76.4347 106.887 86.8017C100.221 100.429 93.1432 107.874 85.8447 108.889C85.5603 108.797 84.8968 108.889 84.0121 108.889Z" fill="#F3A591"/>
<path d="M105.339 48.9947C107.362 48.9947 108.847 49.6715 109.668 50.1944C111.248 51.1788 111.722 53.2091 110.711 54.7473C110.079 55.7317 108.973 56.2854 107.836 56.2854C107.204 56.2854 106.572 56.1316 106.003 55.7624C105.813 55.6394 105.592 55.6086 105.308 55.6086C104.297 55.6086 102.591 56.3777 100.537 58.285C94.8498 63.5146 92.101 69.2056 92.7329 74.343C92.8277 75.1735 93.7124 76.1579 95.1342 76.3117C95.2606 76.3117 95.4185 76.3425 95.5449 76.3425C98.7361 76.3425 103.728 72.4357 107.93 61.2074C107.962 61.1459 107.994 61.0843 108.025 61.0228C108.088 60.8998 108.12 60.8075 108.183 60.7152C108.246 60.6229 108.278 60.5306 108.341 60.4691C108.404 60.3768 108.467 60.2845 108.562 60.1922C108.625 60.1307 108.689 60.0384 108.783 59.9769C108.878 59.8846 108.941 59.8231 109.036 59.7615C109.099 59.7 109.194 59.6385 109.289 59.6077C109.384 59.5462 109.479 59.4847 109.605 59.4232C109.7 59.3924 109.763 59.3309 109.858 59.3001C109.984 59.2694 110.079 59.2078 110.205 59.1771C110.3 59.1463 110.395 59.1463 110.49 59.1155C110.616 59.0848 110.711 59.0848 110.837 59.054C110.932 59.054 110.995 59.054 111.09 59.054C111.121 59.054 111.121 59.054 111.153 59.054C111.248 59.054 111.374 59.054 111.501 59.0848C111.627 59.0848 111.722 59.1155 111.848 59.1463C111.911 59.1463 111.975 59.1771 112.069 59.1771C112.101 59.1771 112.164 59.2078 112.196 59.2386C112.227 59.2386 112.29 59.2693 112.322 59.2693C112.385 59.3001 112.448 59.3309 112.512 59.3616C112.606 59.4232 112.733 59.4539 112.828 59.5154C112.922 59.577 113.017 59.6385 113.112 59.7C113.207 59.7615 113.302 59.8231 113.396 59.9154C113.491 59.9769 113.554 60.0692 113.618 60.1307C113.681 60.223 113.775 60.2845 113.839 60.3768C113.902 60.4691 113.965 60.5614 114.028 60.6229C114.091 60.7152 114.155 60.8075 114.186 60.8998C114.249 60.992 114.281 61.0843 114.313 61.1766C114.344 61.2689 114.407 61.392 114.407 61.4842C114.439 61.5765 114.471 61.6996 114.471 61.7919C114.502 61.8842 114.502 62.0072 114.534 62.0995C114.534 62.1918 114.534 62.3148 114.534 62.4071C114.534 62.4994 114.534 62.6225 114.502 62.7147C114.502 62.8378 114.471 62.9301 114.439 63.0531C114.439 63.1147 114.407 63.1762 114.407 63.2685C113.175 67.5445 101.927 105.198 85.6555 107.474C85.4028 107.505 84.8025 107.597 84.0126 107.597C82.3064 107.597 79.6524 107.259 77.4723 105.413C75.9242 104.121 74.0916 101.629 74.1864 97.0764C74.218 95.2614 75.7346 93.8463 77.5671 93.8463C77.5987 93.8463 77.6303 93.8463 77.6303 93.8463C79.4944 93.8771 80.9794 95.3845 80.9478 97.2302C80.9162 98.3069 81.0742 99.722 81.8325 100.368C82.4012 100.86 83.3491 100.983 83.981 100.983C84.2337 100.983 84.4233 100.952 84.5497 100.952C89.131 100.337 94.7234 93.4464 100.063 82.0336C98.2937 82.7719 96.714 82.9872 95.4817 82.9872C95.0394 82.9872 94.6602 82.9564 94.3443 82.9257C89.9841 82.4335 86.477 79.1726 85.9715 75.1735C85.0552 67.9136 88.5939 60.223 95.8609 53.5168C99.6839 49.9791 102.907 48.9947 105.339 48.9947ZM105.339 46.3491C101.58 46.3491 97.7882 48.1026 94.0283 51.548C86.0979 58.8387 82.3064 67.3291 83.3175 75.4504C83.981 80.6492 88.4991 84.8945 94.0599 85.5097C94.4707 85.5405 94.8814 85.5712 95.2922 85.602C90.5212 94.4308 86.4454 97.9993 84.2022 98.3069C84.139 98.3069 84.0758 98.3069 84.0126 98.3069C83.9178 98.3069 83.823 98.3069 83.7598 98.3069C83.7282 98.0916 83.6966 97.7532 83.6966 97.261C83.7282 95.6613 83.1279 94.154 81.9905 93.0158C80.853 91.8775 79.3365 91.2008 77.6935 91.17H77.5671C74.2812 91.17 71.5324 93.7848 71.4692 96.9841C71.3428 102.552 73.7125 105.721 75.703 107.382C78.4834 109.72 81.7693 110.212 84.0126 110.212C84.992 110.212 85.7503 110.12 86.0979 110.058C103.665 107.597 114.945 71.2052 117.03 63.9452C117.061 63.7914 117.093 63.6684 117.125 63.5146C117.156 63.33 117.188 63.1454 117.219 62.9916C117.251 62.807 117.251 62.6225 117.251 62.4071C117.251 62.2225 117.251 62.0072 117.219 61.8226C117.188 61.6381 117.156 61.4535 117.125 61.2381C117.093 61.0536 117.061 60.869 116.998 60.6844C116.935 60.4998 116.872 60.3153 116.809 60.1307C116.745 59.9461 116.651 59.7923 116.556 59.6077C116.461 59.4539 116.366 59.2693 116.272 59.1155C116.177 58.9617 116.05 58.8079 115.956 58.6541C115.829 58.5003 115.703 58.3465 115.576 58.2234C115.45 58.0696 115.292 57.9466 115.166 57.8235C115.008 57.7005 114.85 57.5774 114.692 57.4544C114.534 57.3621 114.376 57.239 114.218 57.1467C114.06 57.0545 113.87 56.9622 113.712 56.9006C113.586 56.8391 113.428 56.7776 113.302 56.7161C113.238 56.6853 113.144 56.6545 113.08 56.6545C113.017 56.6238 112.922 56.593 112.859 56.593C112.828 56.593 112.828 56.593 112.796 56.5623C112.891 56.4392 112.986 56.2854 113.08 56.1623C114.881 53.3937 114.06 49.7022 111.216 47.9488C109.952 47.2105 107.994 46.3491 105.339 46.3491ZM95.4185 73.6662C95.071 69.4825 97.5354 64.7143 102.433 60.1922C103.728 58.9925 104.676 58.4695 105.15 58.3157C105.529 58.5003 105.908 58.6233 106.287 58.7464C106.224 58.8079 106.193 58.9002 106.129 58.9617C106.035 59.1155 105.94 59.2693 105.845 59.4232C105.75 59.577 105.655 59.7615 105.592 59.9154C105.529 60.0384 105.466 60.1615 105.403 60.3153C101.295 71.2975 96.9035 73.6969 95.5765 73.6969C95.5449 73.6969 95.5133 73.6969 95.4817 73.6969C95.4501 73.6662 95.4501 73.6662 95.4185 73.6662Z" fill="#A51E24"/>
<path d="M124.929 78.6806C123.728 78.6806 122.591 78.4961 121.548 78.1269C118.072 76.9272 114.787 73.2664 115.987 66.6218C118.072 55.0243 123.791 45.0265 124.044 44.6266C124.897 43.1808 126.477 42.2579 128.183 42.2579C129.004 42.2579 129.794 42.4732 130.521 42.8424C131.627 43.4576 132.417 44.442 132.764 45.6418C133.112 46.8415 132.954 48.072 132.322 49.1487C132.259 49.241 127.172 58.1928 125.371 68.2214C125.276 68.7136 125.245 69.1135 125.245 69.4211C127.425 69.175 132.385 66.4987 136.113 60.5C136.935 54.4706 140.347 48.5334 146.319 42.8732C149.7 39.6739 153.049 38.0742 156.303 38.0742C157.03 38.0742 157.756 38.1665 158.451 38.3203C163.823 39.5201 165.908 44.7497 166.129 45.3342C167.014 47.7336 165.75 50.41 163.286 51.2713C162.748 51.4559 162.211 51.5482 161.674 51.5482C159.684 51.5482 157.914 50.3484 157.219 48.5334C157.03 48.1028 156.556 47.426 156.303 47.3337C156.24 47.3337 155.197 47.3952 152.985 49.5178C147.551 54.6859 144.96 59.854 145.529 64.4992C145.561 64.7453 146.003 65.1759 146.856 65.3297C147.077 65.3605 147.298 65.3913 147.519 65.3913C148.657 65.3913 152.638 64.8375 156.556 57.5468C157.377 56.0087 158.989 55.0551 160.758 55.0551C161.516 55.0551 162.275 55.2397 162.97 55.578C164.107 56.1625 164.929 57.1162 165.308 58.2851C165.687 59.4541 165.56 60.7154 164.992 61.8228C158.989 72.9588 151.437 74.62 147.456 74.62C146.666 74.62 145.876 74.5585 145.15 74.4354C142.907 74.0355 140.853 73.0511 139.273 71.5745C134.723 76.0351 129.447 78.6806 124.929 78.6806Z" fill="#F3A591"/>
<path d="M156.303 39.3663C156.935 39.3663 157.535 39.4278 158.136 39.5816C162.812 40.6275 164.644 45.2419 164.834 45.7649C165.466 47.4876 164.549 49.3641 162.78 50.0101C162.401 50.1331 162.022 50.1946 161.611 50.1946C160.221 50.1946 158.925 49.3641 158.42 48.0413C158.199 47.4876 157.409 46.1955 156.556 46.011C156.493 46.011 156.398 45.9802 156.303 45.9802C155.703 45.9802 154.312 46.3186 151.974 48.5335C146.224 53.9784 143.507 59.5464 144.139 64.6222C144.265 65.5759 145.245 66.3449 146.572 66.591C146.856 66.6525 147.172 66.6833 147.488 66.6833C150.363 66.6833 154.312 64.4684 157.725 58.1314C158.325 56.9931 159.526 56.3471 160.726 56.3471C161.263 56.3471 161.801 56.4702 162.306 56.7163C163.981 57.5776 164.613 59.5772 163.728 61.1768C158.104 71.6361 151.185 73.2665 147.393 73.2665C146.508 73.2665 145.813 73.1742 145.339 73.0819C142.812 72.6205 140.663 71.3592 139.241 69.575C134.818 74.3739 129.415 77.3271 124.897 77.3271C123.854 77.3271 122.875 77.1733 121.959 76.8657C120.537 76.3735 115.956 74.1586 117.283 66.8371C119.336 55.4243 124.929 45.6726 125.181 45.2419C125.813 44.1652 126.951 43.55 128.151 43.55C128.72 43.55 129.289 43.673 129.826 43.9806C131.469 44.8727 132.038 46.9031 131.121 48.472C131.027 48.6565 125.845 57.7314 124.012 67.9446C123.76 69.3596 123.886 70.4671 124.297 70.6209C124.486 70.6824 124.708 70.7132 124.96 70.7132C127.393 70.7132 133.175 67.9138 137.441 60.8692C138.136 55.1166 141.485 49.2718 147.298 43.7653C150.395 40.8429 153.428 39.3663 156.303 39.3663ZM156.303 36.7207C152.67 36.7207 149.004 38.4742 145.371 41.8888C139.273 47.6721 135.703 53.7631 134.786 60.0079C132.069 64.2838 128.91 66.5295 126.856 67.5139C128.752 58.1314 133.428 49.887 133.491 49.7947C135.134 46.9338 134.091 43.3039 131.153 41.7042C130.237 41.212 129.194 40.9352 128.151 40.9352C125.94 40.9352 123.918 42.1041 122.812 43.9806C122.559 44.4113 116.746 54.5629 114.597 66.4064C113.238 73.8509 117.03 78.0039 121.042 79.3882C122.243 79.7881 123.539 80.0034 124.897 80.0034C129.478 80.0034 134.723 77.5424 139.305 73.328C140.916 74.5277 142.812 75.3275 144.865 75.6967C145.655 75.8505 146.508 75.912 147.393 75.912C151.69 75.912 159.81 74.1586 166.129 62.4073C166.887 60.9923 167.045 59.3926 166.54 57.8545C166.066 56.3471 164.992 55.0859 163.538 54.3476C162.654 53.9169 161.674 53.6708 160.695 53.6708C158.42 53.6708 156.335 54.9013 155.26 56.8701C152.417 62.1305 149.352 64.007 147.425 64.007C147.267 64.007 147.14 64.007 147.014 63.9762C146.919 63.9454 146.824 63.9454 146.761 63.9147C146.414 59.7925 148.878 55.1474 153.839 50.4407C154.755 49.5794 155.387 49.118 155.829 48.9026C155.861 48.9334 155.861 48.9949 155.892 49.0257C156.745 51.3021 159.052 52.871 161.611 52.871C162.306 52.871 163.033 52.7479 163.696 52.5018C166.856 51.3944 168.53 47.9797 167.361 44.8727C166.951 43.7961 164.644 38.3511 158.704 36.9976C157.978 36.813 157.156 36.7207 156.303 36.7207Z" fill="#A51E24"/>
<path d="M134.281 38.6892C133.554 38.6892 132.891 38.5354 132.227 38.2278C129.858 37.1203 128.847 34.3517 129.984 32.0445L130.711 30.5987C131.501 28.9991 133.175 27.9531 135.008 27.9531C135.734 27.9531 136.398 28.1069 137.061 28.4146C139.431 29.522 140.442 32.2906 139.305 34.5978L138.578 36.0437C137.82 37.6433 136.114 38.6892 134.281 38.6892Z" fill="#F3A591"/>
<path d="M135.008 29.2759C135.513 29.2759 135.987 29.3682 136.461 29.5836C138.167 30.3834 138.862 32.3522 138.072 33.9826L137.346 35.4284C136.777 36.6281 135.545 37.3049 134.281 37.3049C133.775 37.3049 133.301 37.2126 132.827 36.9973C131.121 36.1975 130.426 34.2287 131.216 32.5983L131.943 31.1524C132.543 29.9835 133.744 29.2759 135.008 29.2759ZM135.008 26.6304C132.67 26.6304 130.489 27.9532 129.478 30.0142L128.752 31.4601C127.298 34.4133 128.594 37.9817 131.627 39.3968C132.448 39.7967 133.333 39.9813 134.249 39.9813C136.587 39.9813 138.767 38.6585 139.778 36.5974L140.505 35.1516C141.2 33.7057 141.295 32.1061 140.758 30.5987C140.221 29.0914 139.115 27.8916 137.63 27.2149C136.809 26.8457 135.924 26.6304 135.008 26.6304Z" fill="#A51E24"/>
</svg>
