<svg width="182" height="180" viewBox="0 0 182 180" fill="none" xmlns="http://www.w3.org/2000/svg">
<path d="M130.291 111.323L111.42 145.185C110.191 147.355 107.464 148.148 105.219 146.984L37.0596 109.788C34.8678 108.571 34.0659 105.873 35.2954 103.651L39.2514 96.5609L72.8767 36.1905C74.1062 34.0212 76.8326 33.2275 79.0778 34.4445L147.291 71.6402C149.482 72.8572 150.284 75.5556 149.055 77.7778L130.291 111.323ZM107.518 126.085C109.656 122.222 108.266 117.407 104.364 115.238C100.461 113.122 95.5965 114.497 93.4047 118.36C91.2663 122.222 92.6562 127.037 96.5587 129.206C100.461 131.376 105.379 129.947 107.518 126.085ZM98.5901 95.5556C100.728 91.6931 99.3385 86.8783 95.4361 84.709C91.5336 82.5926 86.6689 83.9683 84.4771 87.8307C82.3388 91.6931 83.7287 96.5609 87.6312 98.6773C91.5336 100.794 96.3983 99.3651 98.5901 95.5556ZM89.5557 64.7619C91.694 60.8995 90.3041 56.0847 86.4016 53.9154C82.4992 51.799 77.581 53.1746 75.4427 57.0371C73.3043 60.8995 74.6942 65.7672 78.5967 67.8836C82.4992 70 87.4173 68.5714 89.5557 64.7619Z" fill="white"/>
<path d="M104.364 115.291C108.266 117.407 109.656 122.275 107.518 126.138C105.379 130 100.461 131.376 96.5587 129.259C92.6562 127.143 91.2663 122.275 93.4047 118.413C95.543 114.55 100.461 113.122 104.364 115.291Z" fill="#1C112E"/>
<path d="M95.3826 84.709C99.2851 86.8254 100.675 91.6932 98.5367 95.5556C96.3983 99.418 91.4802 100.794 87.5777 98.6773C83.6752 96.5609 82.2853 91.6932 84.4237 87.8307C86.6155 83.9683 91.5336 82.5926 95.3826 84.709Z" fill="#1C112E"/>
<path d="M86.4016 53.9153C90.3041 56.0317 91.694 60.8994 89.5557 64.7619C87.4173 68.6243 82.4992 70 78.5967 67.8836C74.6942 65.7672 73.3043 60.8994 75.4427 57.037C77.581 53.1746 82.4992 51.7989 86.4016 53.9153Z" fill="#1C112E"/>
<path d="M107.411 148.889C106.449 148.889 105.486 148.677 104.577 148.148L36.3646 110.952C34.9747 110.212 34.0124 108.942 33.5313 107.46C33.1037 105.979 33.264 104.392 34.0124 103.016L71.5937 35.5027C73.144 32.6985 76.7257 31.6403 79.6124 33.2276L147.825 70.4233C149.215 71.1641 150.177 72.381 150.659 73.9154C151.086 75.3969 150.926 76.9842 150.177 78.3599L112.596 145.873C111.527 147.778 109.496 148.889 107.411 148.889ZM76.8326 35.1853C75.71 35.1853 74.5873 35.7673 73.9993 36.8255L36.4181 104.339C35.9904 105.079 35.8835 105.926 36.1508 106.773C36.3646 107.566 36.9527 108.254 37.7011 108.677L105.914 145.873C107.464 146.72 109.442 146.138 110.297 144.603L147.879 77.09C148.306 76.3493 148.413 75.5027 148.146 74.6562C147.932 73.8625 147.344 73.1747 146.596 72.7514L78.3829 35.5556C77.8483 35.2911 77.3137 35.1853 76.8326 35.1853Z" fill="#1C112E"/>
<path d="M82.4992 70.2118C80.9489 70.2118 79.3986 69.8414 77.9552 69.0477C75.7634 67.8308 74.1597 65.8731 73.4647 63.4922C72.7698 61.1112 73.0371 58.5715 74.2666 56.4022C75.4961 54.2329 77.4741 52.6456 79.8797 51.9578C82.2854 51.2699 84.8514 51.5345 87.0431 52.7514C89.2349 53.9684 90.8387 55.926 91.5337 58.307C92.2286 60.6879 91.9613 63.2276 90.7318 65.3969C89.5022 67.5662 87.5243 69.1536 85.1186 69.8414C84.2633 70.053 83.3545 70.2118 82.4992 70.2118ZM82.4992 54.2329C81.8577 54.2329 81.2162 54.3387 80.6281 54.4975C78.9175 54.9737 77.4741 56.1377 76.6188 57.6721C75.7634 59.2065 75.5496 61.0054 76.0307 62.7514C76.5119 64.4446 77.6879 65.8731 79.2382 66.7197C80.7885 67.5662 82.6061 67.7779 84.3702 67.3017C86.0809 66.8255 87.5243 65.6615 88.3796 64.1271C89.2349 62.5927 89.4488 60.7938 88.9676 59.0477C88.4865 57.3546 87.3104 55.926 85.7601 55.0795C84.7444 54.4975 83.6218 54.2329 82.4992 54.2329Z" fill="#1C112E"/>
<path d="M91.4802 100.952C89.9299 100.952 88.3796 100.582 86.9897 99.7885C84.7979 98.5715 83.1941 96.6139 82.4992 94.2329C81.8042 91.8519 82.0715 89.3123 83.3011 87.1429C84.5306 84.9736 86.5086 83.3863 88.9142 82.6985C91.3198 82.0107 93.8858 82.2752 96.0776 83.4922C100.622 85.9789 102.279 91.6403 99.7662 96.1377C98.0021 99.2594 94.7946 100.952 91.4802 100.952ZM91.5336 85.0265C90.8921 85.0265 90.2506 85.1324 89.6626 85.2911C87.9519 85.7673 86.5086 86.9313 85.6532 88.4657C84.7979 90.0001 84.5841 91.799 85.0652 93.5451C85.5463 95.2382 86.7224 96.6668 88.2727 97.5133C91.5336 99.2594 95.5965 98.0953 97.4141 94.9207C99.1782 91.6932 98.0021 87.6721 94.7946 85.8731C93.7254 85.2911 92.6563 85.0265 91.5336 85.0265Z" fill="#1C112E"/>
<path d="M100.461 131.534C98.9109 131.534 97.3606 131.164 95.9707 130.37C93.7789 129.153 92.1751 127.196 91.4802 124.815C90.7852 122.434 91.0525 119.947 92.2821 117.725C94.7946 113.228 100.515 111.587 105.059 114.074C107.25 115.291 108.854 117.249 109.549 119.63C110.244 122.011 109.977 124.55 108.747 126.72C107.518 128.889 105.54 130.476 103.134 131.164C102.225 131.429 101.317 131.534 100.461 131.534ZM100.461 115.608C98.109 115.608 95.8103 116.825 94.5808 119.048C93.7254 120.582 93.5116 122.381 93.9927 124.127C94.4738 125.82 95.6499 127.249 97.2002 128.095C98.7505 128.942 100.568 129.153 102.332 128.677C104.043 128.201 105.486 127.037 106.342 125.503C107.197 123.968 107.411 122.169 106.93 120.476C106.448 118.783 105.272 117.354 103.722 116.508C102.653 115.873 101.584 115.608 100.461 115.608Z" fill="#1C112E"/>
<path d="M69.6157 149.101H45.8802C45.1318 149.101 44.5437 148.519 44.5437 147.778C44.5437 147.037 45.1318 146.455 45.8802 146.455H69.6157C70.3641 146.455 70.9522 147.037 70.9522 147.778C70.9522 148.519 70.3641 149.101 69.6157 149.101Z" fill="#1C112E"/>
<path d="M134.461 149.101H78.7036C77.9552 149.101 77.3672 148.519 77.3672 147.778C77.3672 147.037 77.9552 146.455 78.7036 146.455H134.461C135.209 146.455 135.797 147.037 135.797 147.778C135.797 148.519 135.209 149.101 134.461 149.101Z" fill="#1C112E"/>
<path d="M57.748 104.868C57.641 104.868 57.4807 104.868 57.3738 104.815C50.05 102.698 43.7419 100.318 38.6099 97.7249C28.8805 92.8572 24.0692 87.7249 24.7107 82.8043C25.4057 77.4604 32.3018 73.545 44.7041 71.4815C45.4525 71.3757 46.1475 71.8519 46.2544 72.5397C46.3613 73.2805 45.8802 73.9683 45.1853 74.0741C34.4401 75.8731 27.9182 79.2064 27.4371 83.1217C26.956 86.7196 31.4999 91.1641 39.8929 95.344C44.918 97.8307 51.0657 100.159 58.2291 102.275C58.924 102.487 59.3517 103.228 59.1379 103.915C58.8706 104.497 58.336 104.868 57.748 104.868Z" fill="#1C112E"/>
<path d="M116.98 113.228C116.713 113.228 116.445 113.228 116.231 113.228C115.483 113.228 114.895 112.646 114.895 111.905C114.895 111.164 115.483 110.582 116.231 110.582C121.203 110.582 125.907 110.423 130.184 110.053C145.42 108.73 155.256 104.868 155.951 100C156.325 97.2487 153.866 94.0741 148.788 90.7937C148.146 90.3704 147.986 89.5767 148.413 88.9418C148.841 88.3069 149.643 88.1482 150.284 88.5714C156.325 92.4868 159.105 96.455 158.624 100.317C157.769 106.773 147.772 111.164 130.451 112.698C126.228 113.016 121.738 113.228 116.98 113.228Z" fill="#1C112E"/>
</svg>
