<svg width="81" height="81" viewBox="0 0 81 81" fill="none" xmlns="http://www.w3.org/2000/svg">
<path d="M62.9189 61.4291V65.4973H58.8507C58.8507 63.2398 60.6614 61.4291 62.9189 61.4291Z" fill="#058342"/>
<path d="M62.9188 54.0451V61.429C60.6848 61.429 58.8506 63.2397 58.8506 65.4972H41.1434C41.1434 63.2397 39.3327 61.429 37.0752 61.429V58.3485V54.0451C39.3092 54.0451 41.1434 52.2344 41.1434 49.9769H51.5843H58.8741C58.8506 52.2344 60.6613 54.0451 62.9188 54.0451Z" fill="white"/>
<path d="M62.9189 49.9769V54.0451C60.6849 54.0451 58.8507 52.2344 58.8507 49.9769H59.5091H62.9189Z" fill="#058342"/>
<path d="M44.7413 31.188C45.823 31.4702 46.8577 31.823 47.8689 32.2462C50.8318 33.5396 53.4421 35.5384 55.4174 38.0311C58.1217 41.3938 59.4856 45.6266 59.4856 49.9535V49.977H58.8271H51.5373V48.1898C51.5373 46.967 51.3727 45.7207 50.9964 44.5684C49.3974 39.7007 44.6943 36.2439 39.2387 36.5496C33.3362 36.8788 28.5391 41.6289 28.1863 47.5078C27.9982 50.5178 28.9624 53.2927 30.6555 55.4561C32.1134 57.3138 34.3944 58.3485 36.7695 58.3485H37.0517V61.4291V63.8982H34.1593H18.3098C17.3457 63.8982 16.5461 63.1222 16.5461 62.1345V60.0887C16.5461 59.4773 16.8753 58.9129 17.3927 58.5837L19.368 57.3844C19.8853 57.0552 20.2146 56.4908 20.2146 55.8794V50.7295C20.2146 42.5931 25.0353 35.5149 31.9723 32.3638C32.96 31.8935 33.9947 31.5408 35.0764 31.2586C36.6284 30.8588 38.2275 30.6472 39.8971 30.6237C40.1087 30.6237 40.3204 30.6237 40.532 30.6237C41.9665 30.6472 43.3774 30.8588 44.7413 31.188Z" fill="#D4B265"/>
<path d="M51.5609 48.1898V49.9769H41.1435H37.0753V54.0451V58.3485H36.7931C34.418 58.3485 32.1605 57.3138 30.679 55.4561C28.9859 53.2926 28.0218 50.4943 28.2099 47.5078C28.5626 41.6054 33.3598 36.8553 39.2622 36.5495C44.7178 36.2674 49.421 39.7242 51.02 44.5684C51.4198 45.7206 51.5609 46.967 51.5609 48.1898Z" fill="#058342"/>
<path d="M48.9507 23.6395C50.197 23.6395 51.0671 24.9329 50.5732 26.0851L47.869 32.2462C46.8578 31.7994 45.8231 31.4467 44.7414 31.188L46.9518 23.9923C46.9989 23.8747 47.0224 23.7571 47.0224 23.6395H47.0694H48.9507Z" fill="#D4B265"/>
<path d="M39.8971 30.6236C38.2275 30.6236 36.6049 30.8587 35.0764 31.2585L32.8424 24.0157C32.7954 23.8981 32.7719 23.7806 32.7719 23.663C32.6543 22.6518 33.4538 21.7347 34.512 21.7347H35.4291C36.0876 21.7347 36.746 21.5466 37.3104 21.1939L38.0158 20.7471C39.1681 20.0181 40.6261 20.0181 41.7783 20.7471L42.4838 21.1939C43.0482 21.5466 43.7066 21.7347 44.365 21.7347H45.2822C46.3404 21.7347 47.1164 22.6518 47.0223 23.663C47.0223 23.7806 46.9753 23.8981 46.9518 24.0157L44.7413 31.2115C43.3774 30.8823 41.9665 30.6706 40.532 30.6471C40.3204 30.6236 40.1087 30.6236 39.8971 30.6236Z" fill="#D4B265"/>
<path d="M37.0752 49.9769H41.1434C41.1434 52.2344 39.3327 54.0451 37.0752 54.0451V49.9769Z" fill="#058342"/>
<path d="M41.1434 65.4973H37.0752V63.8982V61.4291C39.3092 61.4291 41.1434 63.2398 41.1434 65.4973Z" fill="#058342"/>
<path d="M35.0764 31.2351C33.9947 31.5173 32.96 31.8935 31.9724 32.3638V32.3403L29.2681 26.0851C28.7743 24.9329 29.6208 23.6395 30.8907 23.6395H32.7719H32.8189C32.8189 23.7571 32.8425 23.8747 32.8895 23.9923L35.0764 31.2351Z" fill="#D4B265"/>
<path d="M37.0752 64.4624H18.3098C17.0164 64.4624 15.9582 63.4042 15.9582 62.1108V60.065C15.9582 59.2419 16.3815 58.4895 17.087 58.0662L19.0623 56.8669C19.415 56.6552 19.6267 56.279 19.6267 55.8792V50.7293C19.6267 42.5694 24.3768 35.162 31.7372 31.8228C32.7484 31.3525 33.8301 30.9527 34.9353 30.6705C36.5579 30.2472 38.2275 30.0356 39.9206 30.0121C40.1323 30.0121 40.3439 30.0121 40.579 30.0121C42.0135 30.0356 43.495 30.2472 44.9294 30.6C46.0582 30.8822 47.1399 31.2584 48.1511 31.7052C51.1846 33.0221 53.8653 35.0915 55.9347 37.6782C58.639 41.0644 60.144 45.4383 60.144 49.9533C60.144 50.2825 59.8853 50.5412 59.5561 50.5412C59.2269 50.5412 58.9682 50.2825 58.9682 49.9533V49.9298C58.9682 45.6735 57.5573 41.5582 55.0176 38.3836C53.0893 35.938 50.5497 34.0097 47.6808 32.7634C46.7166 32.3401 45.7054 31.9874 44.6472 31.7287C43.3069 31.3995 41.9194 31.2114 40.5555 31.1879C40.3439 31.1879 40.1558 31.1879 39.9441 31.1879C38.3686 31.1879 36.793 31.3995 35.2645 31.7993C34.2298 32.0815 33.2187 32.4342 32.2545 32.881C25.3174 36.0321 20.826 43.0397 20.826 50.7058V55.8557C20.826 56.6787 20.4027 57.4312 19.6972 57.8545L17.7219 59.0538C17.3692 59.2655 17.1575 59.6417 17.1575 60.0415V62.0873C17.1575 62.7223 17.6749 63.2631 18.3333 63.2631H37.0987C37.428 63.2631 37.6866 63.5218 37.6866 63.851C37.6866 64.1802 37.4044 64.4624 37.0752 64.4624Z" fill="#1C112E"/>
<path d="M36.7931 58.9362C34.2063 58.9362 31.7607 57.7605 30.2322 55.8322C28.3745 53.4571 27.4574 50.4941 27.6455 47.4841C28.0217 41.2525 33.007 36.2907 39.2387 35.9615C44.7883 35.6793 49.8677 39.1361 51.6079 44.4036C51.9841 45.5559 52.1722 46.8492 52.1722 48.2131V50.0003C52.1722 50.3295 51.9136 50.5882 51.5844 50.5882C51.2551 50.5882 50.9965 50.3295 50.9965 50.0003V48.2131C50.9965 46.9668 50.8319 45.8145 50.4791 44.7799C48.9036 40.0297 44.318 36.8786 39.3092 37.1608C33.6655 37.4665 29.1505 41.9345 28.8213 47.5782C28.6567 50.306 29.4797 52.9868 31.1728 55.1502C32.4897 56.8198 34.6061 57.8075 36.8166 57.8075C37.1458 57.8075 37.4045 58.0662 37.4045 58.3954C37.4045 58.7246 37.1223 58.9362 36.7931 58.9362Z" fill="#1C112E"/>
<path d="M31.9489 32.928C31.7138 32.928 31.5021 32.7869 31.4081 32.5753L28.7038 26.3201C28.3981 25.5912 28.4686 24.7681 28.8919 24.0862C29.3152 23.4277 30.0677 23.028 30.8437 23.028H32.7249C33.0541 23.028 33.3128 23.2866 33.3128 23.6158C33.3128 23.9451 33.0541 24.2037 32.7249 24.2037H30.8437C30.4439 24.2037 30.0912 24.3919 29.8795 24.7211C29.6679 25.0503 29.6209 25.4501 29.7855 25.8263L32.4898 32.0815C32.6309 32.3872 32.4898 32.7164 32.1841 32.8575C32.1135 32.9045 32.043 32.928 31.9489 32.928Z" fill="#1C112E"/>
<path d="M35.0764 31.8228C34.8177 31.8228 34.5826 31.6582 34.512 31.3995L32.2781 24.1567C32.231 23.9686 32.184 23.8275 32.184 23.6629C32.1135 23.028 32.3486 22.3696 32.7719 21.8993C33.2187 21.4054 33.8536 21.1232 34.512 21.1232H35.4291C35.9935 21.1232 36.5344 20.9586 37.0047 20.6764L37.7102 20.2296C39.0505 19.3831 40.7672 19.3831 42.0841 20.2296L42.7895 20.6764C43.2598 20.9821 43.8007 21.1232 44.3651 21.1232H45.2822C45.9406 21.1232 46.5755 21.4054 47.0223 21.8993C47.4691 22.3931 47.6808 23.0515 47.6102 23.71C47.6102 23.8275 47.5632 23.9921 47.5162 24.1803L45.2822 31.4231C45.1881 31.7288 44.8589 31.9169 44.5532 31.8228C44.2475 31.7288 44.0594 31.3995 44.1534 31.0938L44.1769 31.0468L46.4109 23.8275C46.4344 23.71 46.458 23.6629 46.458 23.6159C46.4815 23.2632 46.3874 22.9575 46.1523 22.6988C45.9406 22.4636 45.6349 22.3225 45.2822 22.3225H44.3651C43.5891 22.3225 42.813 22.1109 42.1781 21.6876L41.4727 21.2408C40.532 20.6294 39.3092 20.6294 38.3451 21.2408L37.6396 21.6876C36.9812 22.1109 36.2287 22.3225 35.4527 22.3225H34.5356C34.2063 22.3225 33.9006 22.4636 33.6655 22.6988C33.4538 22.9339 33.3363 23.2632 33.3833 23.5924C33.3833 23.6159 33.3833 23.6394 33.3833 23.6629C33.3833 23.6864 33.3833 23.7335 33.4303 23.8275L35.6643 31.0703C35.7584 31.376 35.5938 31.7053 35.2645 31.7993C35.194 31.8228 35.1234 31.8228 35.0764 31.8228Z" fill="#1C112E"/>
<path d="M47.8454 32.9281C47.7749 32.9281 47.7043 32.9045 47.6103 32.881C47.3046 32.7635 47.1635 32.4107 47.3046 32.105L47.3516 32.011L50.0324 25.8499C50.197 25.4736 50.1499 25.0739 49.9383 24.7446C49.7267 24.4154 49.3739 24.2273 48.9742 24.2273H47.0929C46.7637 24.2273 46.505 23.9686 46.505 23.6394C46.505 23.3102 46.7637 23.0515 47.0929 23.0515H48.9742C49.7502 23.0515 50.4792 23.4513 50.926 24.1097C51.3727 24.7682 51.4433 25.5912 51.1376 26.3202L48.4333 32.5753C48.2922 32.787 48.0806 32.9281 47.8454 32.9281Z" fill="#1C112E"/>
<path d="M39.897 31.2115C39.5678 31.2115 39.3092 30.9528 39.3092 30.6236V25.168C39.3092 24.8387 39.5678 24.5801 39.897 24.5801C40.2263 24.5801 40.4849 24.8387 40.4849 25.168V30.6236C40.4849 30.9293 40.2263 31.2115 39.897 31.2115Z" fill="#1C112E"/>
<path d="M62.9188 66.0849H37.0752C36.746 66.0849 36.4873 65.8262 36.4873 65.497V50.0002C36.4873 49.671 36.746 49.4124 37.0752 49.4124H62.9188C63.248 49.4124 63.5067 49.671 63.5067 50.0002V65.497C63.5067 65.8027 63.2245 66.0849 62.9188 66.0849ZM37.6631 64.9091H62.3309V50.5881H37.6631V64.9091Z" fill="#1C112E"/>
<path d="M37.0752 54.6329C36.746 54.6329 36.4873 54.3742 36.4873 54.045C36.4873 53.7158 36.746 53.4571 37.0752 53.4571C38.9799 53.4571 40.5555 51.9051 40.5555 49.9768C40.5555 49.6476 40.8142 49.3889 41.1434 49.3889C41.4726 49.3889 41.7313 49.6476 41.7313 49.9768C41.7313 52.54 39.6384 54.6329 37.0752 54.6329Z" fill="#1C112E"/>
<path d="M62.9189 54.6329C60.3557 54.6329 58.2628 52.54 58.2628 49.9768C58.2628 49.6476 58.5215 49.3889 58.8507 49.3889C59.1799 49.3889 59.4386 49.6476 59.4386 49.9768C59.4386 51.9051 60.9906 53.4571 62.9189 53.4571C63.2481 53.4571 63.5068 53.7158 63.5068 54.045C63.5068 54.3742 63.2246 54.6329 62.9189 54.6329Z" fill="#1C112E"/>
<path d="M41.1434 66.085C40.8142 66.085 40.5555 65.8264 40.5555 65.4971C40.5555 63.5689 39.0035 62.0168 37.0752 62.0168C36.746 62.0168 36.4873 61.7582 36.4873 61.429C36.4873 61.0997 36.746 60.8411 37.0752 60.8411C39.6384 60.8411 41.7313 62.9339 41.7313 65.4971C41.7313 65.8029 41.4491 66.085 41.1434 66.085Z" fill="#1C112E"/>
<path d="M58.8507 66.085C58.5215 66.085 58.2628 65.8264 58.2628 65.4971C58.2628 62.9339 60.3557 60.8411 62.9189 60.8411C63.2481 60.8411 63.5068 61.0997 63.5068 61.429C63.5068 61.7582 63.2481 62.0168 62.9189 62.0168C61.0142 62.0168 59.4386 63.5689 59.4386 65.4971C59.4386 65.8029 59.1799 66.085 58.8507 66.085Z" fill="#1C112E"/>
<path d="M50.9494 62.2755H48.927C47.9629 62.2755 47.1869 61.4995 47.1869 60.5353C47.1869 60.2061 47.4455 59.9475 47.7748 59.9475C48.104 59.9475 48.3627 60.2061 48.3627 60.5353C48.3627 60.841 48.6213 61.0997 48.927 61.0997H50.9494C51.3256 61.0997 51.6313 60.794 51.6313 60.4413V59.0774C51.6313 58.7011 51.3256 58.4189 50.9494 58.4189H49.0446C48.0334 58.4189 47.1869 57.5959 47.1869 56.5847V55.2208C47.1869 54.2096 48.0099 53.3866 49.0446 53.3866H51.2786C52.1252 53.3866 52.8071 54.0685 52.8071 54.9151C52.8071 55.2443 52.5484 55.503 52.2192 55.503C51.89 55.503 51.6313 55.2443 51.6313 54.9151C51.6313 54.727 51.4667 54.5624 51.2786 54.5624H49.0446C48.6684 54.5624 48.3627 54.8681 48.3627 55.2208V56.5847C48.3627 56.961 48.6684 57.2432 49.0446 57.2432H50.9494C51.9605 57.2432 52.8071 58.0662 52.8071 59.0774V60.4413C52.8071 61.4525 51.9605 62.2755 50.9494 62.2755Z" fill="#1C112E"/>
<path d="M49.9853 54.5389C49.6561 54.5389 49.3974 54.2803 49.3974 53.951V52.7753C49.3974 52.446 49.6561 52.1874 49.9853 52.1874C50.3145 52.1874 50.5732 52.446 50.5732 52.7753V53.951C50.5732 54.2803 50.3145 54.5389 49.9853 54.5389Z" fill="#1C112E"/>
<path d="M49.9853 63.4513C49.6561 63.4513 49.3974 63.1926 49.3974 62.8634V61.6876C49.3974 61.3584 49.6561 61.0997 49.9853 61.0997C50.3145 61.0997 50.5732 61.3584 50.5732 61.6876V62.8634C50.5732 63.1926 50.3145 63.4513 49.9853 63.4513Z" fill="#1C112E"/>
<path d="M42.3192 47.8369C42.1311 47.8369 41.9429 47.7428 41.8254 47.5547C41.6372 47.249 41.308 47.0609 40.9318 47.0609H38.4156C37.1928 47.0609 36.1816 46.0732 36.1816 44.8269V43.0632C36.1816 41.8404 37.1693 40.8292 38.4156 40.8292H41.3315C42.3427 40.8292 43.1422 41.6523 43.1422 42.6399C43.1422 42.9691 42.8836 43.2278 42.5543 43.2278C42.2251 43.2278 41.9665 42.9691 41.9665 42.6399C41.9665 42.2872 41.6843 42.005 41.3315 42.005H38.4156C37.8277 42.005 37.3574 42.4753 37.3574 43.0632V44.8269C37.3574 45.4148 37.8277 45.8851 38.4156 45.8851H40.9318C41.7078 45.8851 42.3897 46.2613 42.813 46.9198C42.9776 47.2019 42.9071 47.5547 42.6249 47.7428C42.5308 47.8134 42.4368 47.8369 42.3192 47.8369Z" fill="#1C112E"/>
<path d="M39.6855 42.0286C39.3563 42.0286 39.0976 41.7699 39.0976 41.4407V39.8887C39.0976 39.5595 39.3563 39.3008 39.6855 39.3008C40.0147 39.3008 40.2734 39.5595 40.2734 39.8887V41.4407C40.2734 41.7464 40.0147 42.0286 39.6855 42.0286Z" fill="#1C112E"/>
<path d="M23.3892 21.8991C23.2951 21.8991 23.2245 21.8756 23.1305 21.8286L19.8618 20.2295C19.5796 20.0884 19.4385 19.7357 19.6032 19.4535C19.7442 19.1713 20.097 19.0302 20.3792 19.1949L23.6478 20.7939C23.93 20.935 24.0711 21.2877 23.9065 21.5699C23.8124 21.7816 23.6008 21.8991 23.3892 21.8991Z" fill="#1C112E"/>
<path d="M26.3051 18.3013C26.117 18.3013 25.9524 18.2073 25.8348 18.0662L23.6949 15.1267C23.5068 14.868 23.5538 14.4918 23.836 14.3037C24.0947 14.1155 24.4709 14.1626 24.6591 14.4448L26.799 17.3842C26.9871 17.6429 26.9401 18.0191 26.6579 18.2073C26.5403 18.2778 26.4227 18.3013 26.3051 18.3013Z" fill="#1C112E"/>
<path d="M30.726 17.0785C30.7025 17.0785 30.679 17.0785 30.6554 17.0785C30.3262 17.0315 30.1146 16.7493 30.1381 16.4201L30.6084 12.8222C30.6554 12.493 30.9376 12.2814 31.2669 12.3049C31.5961 12.3519 31.8077 12.6341 31.7842 12.9633L31.3139 16.5612C31.2669 16.8669 31.0082 17.0785 30.726 17.0785Z" fill="#1C112E"/>
</svg>
