<svg width="24" height="24" viewBox="0 0 24 24" fill="none" xmlns="http://www.w3.org/2000/svg">
<path d="M21.0015 6.7145C20.34 7.0075 19.6285 7.203 18.878 7.2955C19.641 6.8425 20.228 6.12 20.5035 5.2665C19.7895 5.685 18.9985 5.9925 18.157 6.1545C17.485 5.442 16.5265 5 15.4645 5C13.4245 5 11.771 6.639 11.771 8.66C11.771 8.946 11.8045 9.2245 11.8675 9.495C8.7985 9.341 6.0765 7.882 4.2555 5.668C3.9355 6.209 3.7555 6.8425 3.7555 7.511C3.7555 8.7815 4.406 9.9 5.398 10.559C4.7925 10.5405 4.2225 10.372 3.7235 10.102C3.7235 10.113 3.7235 10.1295 3.7235 10.145C3.7235 11.9205 4.997 13.399 6.685 13.7355C6.3765 13.82 6.0505 13.867 5.7145 13.867C5.476 13.867 5.2435 13.84 5.0185 13.7995C5.4885 15.2505 6.852 16.311 8.4675 16.3425C7.2035 17.3225 5.6115 17.9095 3.8805 17.9095C3.5815 17.9095 3.289 17.8925 3 17.8575C4.6355 18.893 6.5775 19.5 8.662 19.5C15.4545 19.5 19.1705 13.922 19.1705 9.083C19.1705 8.9245 19.1655 8.7665 19.158 8.6105C19.883 8.0985 20.508 7.4525 21.0015 6.7145Z" fill="#03A9F4"/>
</svg>
